ISO-10303-21;
HEADER;
/* Generated by software containing ST-Developer
 * from STEP Tools, Inc. (www.steptools.com) 
 */
/* OPTION: using custom renumber hook */

FILE_DESCRIPTION(
/* description */ ('STEP AP242 Edition 2',
'CAx-IF Rec.Pracs.---Representation and Presentation of Product Manufa
cturing Information (PMI)---4.0---2014-10-13',
'CAx-IF Rec.Pracs.---3D Tessellated Geometry---0.4---2014-09-14','2;1',
'CAx-IF Rec.Pracs.---User Defined Attributes---1.5---2016-08-15'),
/* implementation_level */ '2;1');

FILE_NAME(
/* name */ 'Assembly 1 - Part 1',
/* time_stamp */ '2026-08-21T17:11:04Z',
/* author */ (''),
/* organization */ (''),
/* preprocessor_version */ 'ST-DEVELOPER v20',
/* originating_system */ 'ONSHAPE BY PTC INC, 1.219',
/* authorisation */ '  ');

FILE_SCHEMA (('AP242_MANAGED_MODEL_BASED_3D_ENGINEERING_MIM_LF { 1 0 10303 442 3 1 4 }'));
ENDSEC;

DATA;
#10=SHAPE_REPRESENTATION_RELATIONSHIP('','',#599,#11);
#11=ADVANCED_BREP_SHAPE_REPRESENTATION('',(#597),#975);
#12=CYLINDRICAL_SURFACE('',#609,0.005);
#13=CYLINDRICAL_SURFACE('',#612,0.005);
#14=CYLINDRICAL_SURFACE('',#614,0.005);
#15=CYLINDRICAL_SURFACE('',#628,0.003);
#16=CYLINDRICAL_SURFACE('',#637,0.005);
#17=CYLINDRICAL_SURFACE('',#640,0.005);
#18=CYLINDRICAL_SURFACE('',#642,0.005);
#19=CYLINDRICAL_SURFACE('',#646,0.003);
#20=CIRCLE('',#603,0.005);
#21=CIRCLE('',#604,0.005);
#22=CIRCLE('',#605,0.005);
#23=CIRCLE('',#610,0.005);
#24=CIRCLE('',#613,0.005);
#25=CIRCLE('',#615,0.005);
#26=CIRCLE('',#617,0.003);
#27=CIRCLE('',#629,0.003);
#28=CIRCLE('',#633,0.005);
#29=CIRCLE('',#634,0.005);
#30=CIRCLE('',#635,0.005);
#31=CIRCLE('',#638,0.005);
#32=CIRCLE('',#641,0.005);
#33=CIRCLE('',#643,0.005);
#34=CIRCLE('',#645,0.003);
#35=CIRCLE('',#647,0.003);
#36=ORIENTED_EDGE('',*,*,#192,.T.);
#37=ORIENTED_EDGE('',*,*,#193,.T.);
#38=ORIENTED_EDGE('',*,*,#194,.F.);
#39=ORIENTED_EDGE('',*,*,#195,.F.);
#40=ORIENTED_EDGE('',*,*,#196,.F.);
#41=ORIENTED_EDGE('',*,*,#197,.F.);
#42=ORIENTED_EDGE('',*,*,#198,.T.);
#43=ORIENTED_EDGE('',*,*,#199,.F.);
#44=ORIENTED_EDGE('',*,*,#200,.T.);
#45=ORIENTED_EDGE('',*,*,#201,.F.);
#46=ORIENTED_EDGE('',*,*,#202,.T.);
#47=ORIENTED_EDGE('',*,*,#203,.F.);
#48=ORIENTED_EDGE('',*,*,#204,.F.);
#49=ORIENTED_EDGE('',*,*,#203,.T.);
#50=ORIENTED_EDGE('',*,*,#205,.T.);
#51=ORIENTED_EDGE('',*,*,#206,.F.);
#52=ORIENTED_EDGE('',*,*,#207,.T.);
#53=ORIENTED_EDGE('',*,*,#208,.F.);
#54=ORIENTED_EDGE('',*,*,#209,.F.);
#55=ORIENTED_EDGE('',*,*,#210,.T.);
#56=ORIENTED_EDGE('',*,*,#209,.T.);
#57=ORIENTED_EDGE('',*,*,#211,.F.);
#58=ORIENTED_EDGE('',*,*,#212,.F.);
#59=ORIENTED_EDGE('',*,*,#199,.T.);
#60=ORIENTED_EDGE('',*,*,#213,.F.);
#61=ORIENTED_EDGE('',*,*,#214,.F.);
#62=ORIENTED_EDGE('',*,*,#215,.T.);
#63=ORIENTED_EDGE('',*,*,#216,.T.);
#64=ORIENTED_EDGE('',*,*,#217,.T.);
#65=ORIENTED_EDGE('',*,*,#218,.F.);
#66=ORIENTED_EDGE('',*,*,#200,.F.);
#67=ORIENTED_EDGE('',*,*,#212,.T.);
#68=ORIENTED_EDGE('',*,*,#219,.F.);
#69=ORIENTED_EDGE('',*,*,#220,.F.);
#70=ORIENTED_EDGE('',*,*,#201,.T.);
#71=ORIENTED_EDGE('',*,*,#218,.T.);
#72=ORIENTED_EDGE('',*,*,#221,.T.);
#73=ORIENTED_EDGE('',*,*,#205,.F.);
#74=ORIENTED_EDGE('',*,*,#202,.F.);
#75=ORIENTED_EDGE('',*,*,#220,.T.);
#76=ORIENTED_EDGE('',*,*,#196,.T.);
#77=ORIENTED_EDGE('',*,*,#222,.F.);
#78=ORIENTED_EDGE('',*,*,#223,.F.);
#79=ORIENTED_EDGE('',*,*,#208,.T.);
#80=ORIENTED_EDGE('',*,*,#224,.T.);
#81=ORIENTED_EDGE('',*,*,#225,.T.);
#82=ORIENTED_EDGE('',*,*,#206,.T.);
#83=ORIENTED_EDGE('',*,*,#221,.F.);
#84=ORIENTED_EDGE('',*,*,#219,.T.);
#85=ORIENTED_EDGE('',*,*,#217,.F.);
#86=ORIENTED_EDGE('',*,*,#211,.T.);
#87=ORIENTED_EDGE('',*,*,#222,.T.);
#88=ORIENTED_EDGE('',*,*,#198,.F.);
#89=ORIENTED_EDGE('',*,*,#226,.F.);
#90=ORIENTED_EDGE('',*,*,#227,.T.);
#91=ORIENTED_EDGE('',*,*,#213,.T.);
#92=ORIENTED_EDGE('',*,*,#228,.T.);
#93=ORIENTED_EDGE('',*,*,#229,.T.);
#94=ORIENTED_EDGE('',*,*,#194,.T.);
#95=ORIENTED_EDGE('',*,*,#230,.F.);
#96=ORIENTED_EDGE('',*,*,#231,.T.);
#97=ORIENTED_EDGE('',*,*,#232,.T.);
#98=ORIENTED_EDGE('',*,*,#233,.F.);
#99=ORIENTED_EDGE('',*,*,#234,.F.);
#100=ORIENTED_EDGE('',*,*,#226,.T.);
#101=ORIENTED_EDGE('',*,*,#197,.T.);
#102=ORIENTED_EDGE('',*,*,#235,.F.);
#103=ORIENTED_EDGE('',*,*,#236,.F.);
#104=ORIENTED_EDGE('',*,*,#225,.F.);
#105=ORIENTED_EDGE('',*,*,#237,.F.);
#106=ORIENTED_EDGE('',*,*,#238,.T.);
#107=ORIENTED_EDGE('',*,*,#235,.T.);
#108=ORIENTED_EDGE('',*,*,#204,.T.);
#109=ORIENTED_EDGE('',*,*,#233,.T.);
#110=ORIENTED_EDGE('',*,*,#239,.F.);
#111=ORIENTED_EDGE('',*,*,#240,.F.);
#112=ORIENTED_EDGE('',*,*,#241,.T.);
#113=ORIENTED_EDGE('',*,*,#242,.F.);
#114=ORIENTED_EDGE('',*,*,#232,.F.);
#115=ORIENTED_EDGE('',*,*,#243,.F.);
#116=ORIENTED_EDGE('',*,*,#244,.T.);
#117=ORIENTED_EDGE('',*,*,#239,.T.);
#118=ORIENTED_EDGE('',*,*,#231,.F.);
#119=ORIENTED_EDGE('',*,*,#245,.F.);
#120=ORIENTED_EDGE('',*,*,#246,.T.);
#121=ORIENTED_EDGE('',*,*,#243,.T.);
#122=ORIENTED_EDGE('',*,*,#229,.F.);
#123=ORIENTED_EDGE('',*,*,#247,.F.);
#124=ORIENTED_EDGE('',*,*,#248,.T.);
#125=ORIENTED_EDGE('',*,*,#195,.T.);
#126=ORIENTED_EDGE('',*,*,#247,.T.);
#127=ORIENTED_EDGE('',*,*,#228,.F.);
#128=ORIENTED_EDGE('',*,*,#249,.F.);
#129=ORIENTED_EDGE('',*,*,#250,.T.);
#130=ORIENTED_EDGE('',*,*,#236,.T.);
#131=ORIENTED_EDGE('',*,*,#238,.F.);
#132=ORIENTED_EDGE('',*,*,#251,.F.);
#133=ORIENTED_EDGE('',*,*,#249,.T.);
#134=ORIENTED_EDGE('',*,*,#192,.F.);
#135=ORIENTED_EDGE('',*,*,#248,.F.);
#136=ORIENTED_EDGE('',*,*,#250,.F.);
#137=ORIENTED_EDGE('',*,*,#251,.T.);
#138=ORIENTED_EDGE('',*,*,#237,.T.);
#139=ORIENTED_EDGE('',*,*,#224,.F.);
#140=ORIENTED_EDGE('',*,*,#207,.F.);
#141=ORIENTED_EDGE('',*,*,#252,.T.);
#142=ORIENTED_EDGE('',*,*,#240,.T.);
#143=ORIENTED_EDGE('',*,*,#244,.F.);
#144=ORIENTED_EDGE('',*,*,#246,.F.);
#145=ORIENTED_EDGE('',*,*,#253,.T.);
#146=ORIENTED_EDGE('',*,*,#254,.T.);
#147=ORIENTED_EDGE('',*,*,#223,.T.);
#148=ORIENTED_EDGE('',*,*,#254,.F.);
#149=ORIENTED_EDGE('',*,*,#230,.T.);
#150=ORIENTED_EDGE('',*,*,#193,.F.);
#151=ORIENTED_EDGE('',*,*,#253,.F.);
#152=ORIENTED_EDGE('',*,*,#245,.T.);
#153=ORIENTED_EDGE('',*,*,#255,.T.);
#154=ORIENTED_EDGE('',*,*,#234,.T.);
#155=ORIENTED_EDGE('',*,*,#256,.T.);
#156=ORIENTED_EDGE('',*,*,#257,.F.);
#157=ORIENTED_EDGE('',*,*,#258,.T.);
#158=ORIENTED_EDGE('',*,*,#259,.F.);
#159=ORIENTED_EDGE('',*,*,#214,.T.);
#160=ORIENTED_EDGE('',*,*,#227,.F.);
#161=ORIENTED_EDGE('',*,*,#242,.T.);
#162=ORIENTED_EDGE('',*,*,#260,.T.);
#163=ORIENTED_EDGE('',*,*,#261,.F.);
#164=ORIENTED_EDGE('',*,*,#256,.F.);
#165=ORIENTED_EDGE('',*,*,#262,.F.);
#166=ORIENTED_EDGE('',*,*,#215,.F.);
#167=ORIENTED_EDGE('',*,*,#259,.T.);
#168=ORIENTED_EDGE('',*,*,#263,.T.);
#169=ORIENTED_EDGE('',*,*,#264,.T.);
#170=ORIENTED_EDGE('',*,*,#263,.F.);
#171=ORIENTED_EDGE('',*,*,#258,.F.);
#172=ORIENTED_EDGE('',*,*,#265,.T.);
#173=ORIENTED_EDGE('',*,*,#266,.F.);
#174=ORIENTED_EDGE('',*,*,#265,.F.);
#175=ORIENTED_EDGE('',*,*,#257,.T.);
#176=ORIENTED_EDGE('',*,*,#261,.T.);
#177=ORIENTED_EDGE('',*,*,#255,.F.);
#178=ORIENTED_EDGE('',*,*,#267,.T.);
#179=ORIENTED_EDGE('',*,*,#268,.T.);
#180=ORIENTED_EDGE('',*,*,#210,.F.);
#181=ORIENTED_EDGE('',*,*,#216,.F.);
#182=ORIENTED_EDGE('',*,*,#262,.T.);
#183=ORIENTED_EDGE('',*,*,#264,.F.);
#184=ORIENTED_EDGE('',*,*,#266,.T.);
#185=ORIENTED_EDGE('',*,*,#260,.F.);
#186=ORIENTED_EDGE('',*,*,#241,.F.);
#187=ORIENTED_EDGE('',*,*,#252,.F.);
#188=ORIENTED_EDGE('',*,*,#267,.F.);
#189=ORIENTED_EDGE('',*,*,#269,.F.);
#190=ORIENTED_EDGE('',*,*,#268,.F.);
#191=ORIENTED_EDGE('',*,*,#269,.T.);
#192=EDGE_CURVE('',#270,#271,#324,.T.);
#193=EDGE_CURVE('',#271,#272,#325,.T.);
#194=EDGE_CURVE('',#273,#272,#326,.T.);
#195=EDGE_CURVE('',#270,#273,#327,.T.);
#196=EDGE_CURVE('',#274,#274,#20,.T.);
#197=EDGE_CURVE('',#275,#276,#328,.T.);
#198=EDGE_CURVE('',#275,#277,#329,.T.);
#199=EDGE_CURVE('',#278,#277,#330,.T.);
#200=EDGE_CURVE('',#278,#279,#21,.T.);
#201=EDGE_CURVE('',#280,#279,#331,.T.);
#202=EDGE_CURVE('',#280,#281,#22,.T.);
#203=EDGE_CURVE('',#276,#281,#332,.T.);
#204=EDGE_CURVE('',#276,#282,#333,.T.);
#205=EDGE_CURVE('',#281,#283,#334,.T.);
#206=EDGE_CURVE('',#282,#283,#335,.T.);
#207=EDGE_CURVE('',#284,#285,#336,.T.);
#208=EDGE_CURVE('',#286,#285,#337,.T.);
#209=EDGE_CURVE('',#287,#286,#338,.T.);
#210=EDGE_CURVE('',#287,#284,#339,.T.);
#211=EDGE_CURVE('',#288,#286,#340,.T.);
#212=EDGE_CURVE('',#278,#288,#341,.T.);
#213=EDGE_CURVE('',#289,#277,#342,.T.);
#214=EDGE_CURVE('',#290,#289,#343,.T.);
#215=EDGE_CURVE('',#290,#291,#344,.T.);
#216=EDGE_CURVE('',#291,#287,#345,.T.);
#217=EDGE_CURVE('',#288,#292,#23,.T.);
#218=EDGE_CURVE('',#279,#292,#346,.T.);
#219=EDGE_CURVE('',#293,#292,#347,.T.);
#220=EDGE_CURVE('',#280,#293,#348,.T.);
#221=EDGE_CURVE('',#293,#283,#24,.T.);
#222=EDGE_CURVE('',#294,#294,#25,.T.);
#223=EDGE_CURVE('',#295,#295,#26,.T.);
#224=EDGE_CURVE('',#285,#296,#349,.T.);
#225=EDGE_CURVE('',#296,#282,#350,.T.);
#226=EDGE_CURVE('',#297,#275,#351,.T.);
#227=EDGE_CURVE('',#297,#289,#352,.T.);
#228=EDGE_CURVE('',#298,#299,#353,.T.);
#229=EDGE_CURVE('',#299,#273,#354,.T.);
#230=EDGE_CURVE('',#300,#272,#355,.T.);
#231=EDGE_CURVE('',#300,#301,#356,.T.);
#232=EDGE_CURVE('',#301,#302,#357,.T.);
#233=EDGE_CURVE('',#303,#302,#358,.T.);
#234=EDGE_CURVE('',#297,#303,#359,.T.);
#235=EDGE_CURVE('',#304,#276,#360,.T.);
#236=EDGE_CURVE('',#298,#304,#361,.T.);
#237=EDGE_CURVE('',#305,#296,#362,.T.);
#238=EDGE_CURVE('',#305,#304,#363,.T.);
#239=EDGE_CURVE('',#306,#302,#364,.T.);
#240=EDGE_CURVE('',#307,#306,#365,.T.);
#241=EDGE_CURVE('',#307,#308,#366,.T.);
#242=EDGE_CURVE('',#303,#308,#367,.T.);
#243=EDGE_CURVE('',#309,#301,#368,.T.);
#244=EDGE_CURVE('',#309,#306,#369,.T.);
#245=EDGE_CURVE('',#310,#300,#370,.T.);
#246=EDGE_CURVE('',#310,#309,#371,.T.);
#247=EDGE_CURVE('',#311,#299,#372,.T.);
#248=EDGE_CURVE('',#311,#270,#373,.T.);
#249=EDGE_CURVE('',#312,#298,#374,.T.);
#250=EDGE_CURVE('',#312,#311,#375,.T.);
#251=EDGE_CURVE('',#312,#305,#376,.T.);
#252=EDGE_CURVE('',#284,#307,#377,.T.);
#253=EDGE_CURVE('',#310,#271,#378,.T.);
#254=EDGE_CURVE('',#313,#313,#27,.F.);
#255=EDGE_CURVE('',#314,#314,#28,.T.);
#256=EDGE_CURVE('',#303,#315,#379,.T.);
#257=EDGE_CURVE('',#316,#315,#29,.T.);
#258=EDGE_CURVE('',#316,#317,#380,.T.);
#259=EDGE_CURVE('',#290,#317,#30,.T.);
#260=EDGE_CURVE('',#308,#318,#381,.T.);
#261=EDGE_CURVE('',#315,#318,#382,.T.);
#262=EDGE_CURVE('',#291,#319,#31,.T.);
#263=EDGE_CURVE('',#317,#319,#383,.T.);
#264=EDGE_CURVE('',#320,#319,#384,.T.);
#265=EDGE_CURVE('',#316,#320,#385,.T.);
#266=EDGE_CURVE('',#320,#318,#32,.T.);
#267=EDGE_CURVE('',#321,#321,#33,.T.);
#268=EDGE_CURVE('',#322,#322,#34,.T.);
#269=EDGE_CURVE('',#323,#323,#35,.T.);
#270=VERTEX_POINT('',#812);
#271=VERTEX_POINT('',#813);
#272=VERTEX_POINT('',#815);
#273=VERTEX_POINT('',#817);
#274=VERTEX_POINT('',#821);
#275=VERTEX_POINT('',#823);
#276=VERTEX_POINT('',#824);
#277=VERTEX_POINT('',#826);
#278=VERTEX_POINT('',#828);
#279=VERTEX_POINT('',#830);
#280=VERTEX_POINT('',#832);
#281=VERTEX_POINT('',#834);
#282=VERTEX_POINT('',#838);
#283=VERTEX_POINT('',#840);
#284=VERTEX_POINT('',#844);
#285=VERTEX_POINT('',#845);
#286=VERTEX_POINT('',#847);
#287=VERTEX_POINT('',#849);
#288=VERTEX_POINT('',#853);
#289=VERTEX_POINT('',#856);
#290=VERTEX_POINT('',#858);
#291=VERTEX_POINT('',#860);
#292=VERTEX_POINT('',#864);
#293=VERTEX_POINT('',#868);
#294=VERTEX_POINT('',#874);
#295=VERTEX_POINT('',#877);
#296=VERTEX_POINT('',#879);
#297=VERTEX_POINT('',#883);
#298=VERTEX_POINT('',#887);
#299=VERTEX_POINT('',#888);
#300=VERTEX_POINT('',#891);
#301=VERTEX_POINT('',#893);
#302=VERTEX_POINT('',#895);
#303=VERTEX_POINT('',#897);
#304=VERTEX_POINT('',#900);
#305=VERTEX_POINT('',#904);
#306=VERTEX_POINT('',#908);
#307=VERTEX_POINT('',#910);
#308=VERTEX_POINT('',#912);
#309=VERTEX_POINT('',#916);
#310=VERTEX_POINT('',#920);
#311=VERTEX_POINT('',#924);
#312=VERTEX_POINT('',#928);
#313=VERTEX_POINT('',#937);
#314=VERTEX_POINT('',#942);
#315=VERTEX_POINT('',#944);
#316=VERTEX_POINT('',#946);
#317=VERTEX_POINT('',#948);
#318=VERTEX_POINT('',#952);
#319=VERTEX_POINT('',#956);
#320=VERTEX_POINT('',#960);
#321=VERTEX_POINT('',#966);
#322=VERTEX_POINT('',#969);
#323=VERTEX_POINT('',#972);
#324=LINE('',#811,#386);
#325=LINE('',#814,#387);
#326=LINE('',#816,#388);
#327=LINE('',#818,#389);
#328=LINE('',#822,#390);
#329=LINE('',#825,#391);
#330=LINE('',#827,#392);
#331=LINE('',#831,#393);
#332=LINE('',#835,#394);
#333=LINE('',#837,#395);
#334=LINE('',#839,#396);
#335=LINE('',#841,#397);
#336=LINE('',#843,#398);
#337=LINE('',#846,#399);
#338=LINE('',#848,#400);
#339=LINE('',#850,#401);
#340=LINE('',#852,#402);
#341=LINE('',#854,#403);
#342=LINE('',#855,#404);
#343=LINE('',#857,#405);
#344=LINE('',#859,#406);
#345=LINE('',#861,#407);
#346=LINE('',#865,#408);
#347=LINE('',#867,#409);
#348=LINE('',#869,#410);
#349=LINE('',#878,#411);
#350=LINE('',#880,#412);
#351=LINE('',#882,#413);
#352=LINE('',#884,#414);
#353=LINE('',#886,#415);
#354=LINE('',#889,#416);
#355=LINE('',#890,#417);
#356=LINE('',#892,#418);
#357=LINE('',#894,#419);
#358=LINE('',#896,#420);
#359=LINE('',#898,#421);
#360=LINE('',#899,#422);
#361=LINE('',#901,#423);
#362=LINE('',#903,#424);
#363=LINE('',#905,#425);
#364=LINE('',#907,#426);
#365=LINE('',#909,#427);
#366=LINE('',#911,#428);
#367=LINE('',#913,#429);
#368=LINE('',#915,#430);
#369=LINE('',#917,#431);
#370=LINE('',#919,#432);
#371=LINE('',#921,#433);
#372=LINE('',#923,#434);
#373=LINE('',#925,#435);
#374=LINE('',#927,#436);
#375=LINE('',#929,#437);
#376=LINE('',#931,#438);
#377=LINE('',#933,#439);
#378=LINE('',#934,#440);
#379=LINE('',#943,#441);
#380=LINE('',#947,#442);
#381=LINE('',#951,#443);
#382=LINE('',#953,#444);
#383=LINE('',#957,#445);
#384=LINE('',#959,#446);
#385=LINE('',#961,#447);
#386=VECTOR('',#653,1.);
#387=VECTOR('',#654,1.);
#388=VECTOR('',#655,1.);
#389=VECTOR('',#656,1.);
#390=VECTOR('',#661,1.);
#391=VECTOR('',#662,1.);
#392=VECTOR('',#663,1.);
#393=VECTOR('',#666,1.);
#394=VECTOR('',#669,1.);
#395=VECTOR('',#672,1.);
#396=VECTOR('',#673,1.);
#397=VECTOR('',#674,1.);
#398=VECTOR('',#677,1.);
#399=VECTOR('',#678,1.);
#400=VECTOR('',#679,1.);
#401=VECTOR('',#680,1.);
#402=VECTOR('',#683,1.);
#403=VECTOR('',#684,1.);
#404=VECTOR('',#685,1.);
#405=VECTOR('',#686,1.);
#406=VECTOR('',#687,1.);
#407=VECTOR('',#688,1.);
#408=VECTOR('',#693,1.);
#409=VECTOR('',#696,1.);
#410=VECTOR('',#697,1.);
#411=VECTOR('',#710,1.);
#412=VECTOR('',#711,1.);
#413=VECTOR('',#714,1.);
#414=VECTOR('',#715,1.);
#415=VECTOR('',#718,1.);
#416=VECTOR('',#719,1.);
#417=VECTOR('',#720,1.);
#418=VECTOR('',#721,1.);
#419=VECTOR('',#722,1.);
#420=VECTOR('',#723,1.);
#421=VECTOR('',#724,1.);
#422=VECTOR('',#725,1.);
#423=VECTOR('',#726,1.);
#424=VECTOR('',#729,1.);
#425=VECTOR('',#730,1.);
#426=VECTOR('',#733,1.);
#427=VECTOR('',#734,1.);
#428=VECTOR('',#735,1.);
#429=VECTOR('',#736,1.);
#430=VECTOR('',#739,1.);
#431=VECTOR('',#740,1.);
#432=VECTOR('',#743,1.);
#433=VECTOR('',#744,1.);
#434=VECTOR('',#747,1.);
#435=VECTOR('',#748,1.);
#436=VECTOR('',#751,1.);
#437=VECTOR('',#752,1.);
#438=VECTOR('',#755,1.);
#439=VECTOR('',#758,1.);
#440=VECTOR('',#759,1.);
#441=VECTOR('',#772,1.);
#442=VECTOR('',#775,1.);
#443=VECTOR('',#780,1.);
#444=VECTOR('',#781,1.);
#445=VECTOR('',#786,1.);
#446=VECTOR('',#789,1.);
#447=VECTOR('',#790,1.);
#448=EDGE_LOOP('',(#36,#37,#38,#39));
#449=EDGE_LOOP('',(#40));
#450=EDGE_LOOP('',(#41,#42,#43,#44,#45,#46,#47));
#451=EDGE_LOOP('',(#48,#49,#50,#51));
#452=EDGE_LOOP('',(#52,#53,#54,#55));
#453=EDGE_LOOP('',(#56,#57,#58,#59,#60,#61,#62,#63));
#454=EDGE_LOOP('',(#64,#65,#66,#67));
#455=EDGE_LOOP('',(#68,#69,#70,#71));
#456=EDGE_LOOP('',(#72,#73,#74,#75));
#457=EDGE_LOOP('',(#76));
#458=EDGE_LOOP('',(#77));
#459=EDGE_LOOP('',(#78));
#460=EDGE_LOOP('',(#79,#80,#81,#82,#83,#84,#85,#86));
#461=EDGE_LOOP('',(#87));
#462=EDGE_LOOP('',(#88,#89,#90,#91));
#463=EDGE_LOOP('',(#92,#93,#94,#95,#96,#97,#98,#99,#100,#101,#102,#103));
#464=EDGE_LOOP('',(#104,#105,#106,#107,#108));
#465=EDGE_LOOP('',(#109,#110,#111,#112,#113));
#466=EDGE_LOOP('',(#114,#115,#116,#117));
#467=EDGE_LOOP('',(#118,#119,#120,#121));
#468=EDGE_LOOP('',(#122,#123,#124,#125));
#469=EDGE_LOOP('',(#126,#127,#128,#129));
#470=EDGE_LOOP('',(#130,#131,#132,#133));
#471=EDGE_LOOP('',(#134,#135,#136,#137,#138,#139,#140,#141,#142,#143,#144,
#145));
#472=EDGE_LOOP('',(#146));
#473=EDGE_LOOP('',(#147));
#474=EDGE_LOOP('',(#148));
#475=EDGE_LOOP('',(#149,#150,#151,#152));
#476=EDGE_LOOP('',(#153));
#477=EDGE_LOOP('',(#154,#155,#156,#157,#158,#159,#160));
#478=EDGE_LOOP('',(#161,#162,#163,#164));
#479=EDGE_LOOP('',(#165,#166,#167,#168));
#480=EDGE_LOOP('',(#169,#170,#171,#172));
#481=EDGE_LOOP('',(#173,#174,#175,#176));
#482=EDGE_LOOP('',(#177));
#483=EDGE_LOOP('',(#178));
#484=EDGE_LOOP('',(#179));
#485=EDGE_LOOP('',(#180,#181,#182,#183,#184,#185,#186,#187));
#486=EDGE_LOOP('',(#188));
#487=EDGE_LOOP('',(#189));
#488=EDGE_LOOP('',(#190));
#489=EDGE_LOOP('',(#191));
#490=FACE_BOUND('',#448,.T.);
#491=FACE_BOUND('',#449,.T.);
#492=FACE_BOUND('',#450,.T.);
#493=FACE_BOUND('',#451,.T.);
#494=FACE_BOUND('',#452,.T.);
#495=FACE_BOUND('',#453,.T.);
#496=FACE_BOUND('',#454,.T.);
#497=FACE_BOUND('',#455,.T.);
#498=FACE_BOUND('',#456,.T.);
#499=FACE_BOUND('',#457,.T.);
#500=FACE_BOUND('',#458,.T.);
#501=FACE_BOUND('',#459,.T.);
#502=FACE_BOUND('',#460,.T.);
#503=FACE_BOUND('',#461,.T.);
#504=FACE_BOUND('',#462,.T.);
#505=FACE_BOUND('',#463,.T.);
#506=FACE_BOUND('',#464,.T.);
#507=FACE_BOUND('',#465,.T.);
#508=FACE_BOUND('',#466,.T.);
#509=FACE_BOUND('',#467,.T.);
#510=FACE_BOUND('',#468,.T.);
#511=FACE_BOUND('',#469,.T.);
#512=FACE_BOUND('',#470,.T.);
#513=FACE_BOUND('',#471,.T.);
#514=FACE_BOUND('',#472,.T.);
#515=FACE_BOUND('',#473,.T.);
#516=FACE_BOUND('',#474,.T.);
#517=FACE_BOUND('',#475,.T.);
#518=FACE_BOUND('',#476,.T.);
#519=FACE_BOUND('',#477,.T.);
#520=FACE_BOUND('',#478,.T.);
#521=FACE_BOUND('',#479,.T.);
#522=FACE_BOUND('',#480,.T.);
#523=FACE_BOUND('',#481,.T.);
#524=FACE_BOUND('',#482,.T.);
#525=FACE_BOUND('',#483,.T.);
#526=FACE_BOUND('',#484,.T.);
#527=FACE_BOUND('',#485,.T.);
#528=FACE_BOUND('',#486,.T.);
#529=FACE_BOUND('',#487,.T.);
#530=FACE_BOUND('',#488,.T.);
#531=FACE_BOUND('',#489,.T.);
#532=PLANE('',#601);
#533=PLANE('',#602);
#534=PLANE('',#606);
#535=PLANE('',#607);
#536=PLANE('',#608);
#537=PLANE('',#611);
#538=PLANE('',#616);
#539=PLANE('',#618);
#540=PLANE('',#619);
#541=PLANE('',#620);
#542=PLANE('',#621);
#543=PLANE('',#622);
#544=PLANE('',#623);
#545=PLANE('',#624);
#546=PLANE('',#625);
#547=PLANE('',#626);
#548=PLANE('',#627);
#549=PLANE('',#630);
#550=PLANE('',#631);
#551=PLANE('',#632);
#552=PLANE('',#636);
#553=PLANE('',#639);
#554=PLANE('',#644);
#555=PLANE('',#648);
#556=ADVANCED_FACE('',(#490),#532,.T.);
#557=ADVANCED_FACE('',(#491,#492),#533,.T.);
#558=ADVANCED_FACE('',(#493),#534,.T.);
#559=ADVANCED_FACE('',(#494),#535,.T.);
#560=ADVANCED_FACE('',(#495),#536,.T.);
#561=ADVANCED_FACE('',(#496),#12,.T.);
#562=ADVANCED_FACE('',(#497),#537,.T.);
#563=ADVANCED_FACE('',(#498),#13,.T.);
#564=ADVANCED_FACE('',(#499,#500),#14,.F.);
#565=ADVANCED_FACE('',(#501,#502,#503),#538,.F.);
#566=ADVANCED_FACE('',(#504),#539,.T.);
#567=ADVANCED_FACE('',(#505),#540,.F.);
#568=ADVANCED_FACE('',(#506),#541,.F.);
#569=ADVANCED_FACE('',(#507),#542,.F.);
#570=ADVANCED_FACE('',(#508),#543,.T.);
#571=ADVANCED_FACE('',(#509),#544,.T.);
#572=ADVANCED_FACE('',(#510),#545,.T.);
#573=ADVANCED_FACE('',(#511),#546,.T.);
#574=ADVANCED_FACE('',(#512),#547,.F.);
#575=ADVANCED_FACE('',(#513),#548,.T.);
#576=ADVANCED_FACE('',(#514,#515),#15,.F.);
#577=ADVANCED_FACE('',(#516),#549,.T.);
#578=ADVANCED_FACE('',(#517),#550,.T.);
#579=ADVANCED_FACE('',(#518,#519),#551,.T.);
#580=ADVANCED_FACE('',(#520),#552,.T.);
#581=ADVANCED_FACE('',(#521),#16,.T.);
#582=ADVANCED_FACE('',(#522),#553,.T.);
#583=ADVANCED_FACE('',(#523),#17,.T.);
#584=ADVANCED_FACE('',(#524,#525),#18,.F.);
#585=ADVANCED_FACE('',(#526,#527,#528),#554,.F.);
#586=ADVANCED_FACE('',(#529,#530),#19,.F.);
#587=ADVANCED_FACE('',(#531),#555,.T.);
#588=CLOSED_SHELL('',(#556,#557,#558,#559,#560,#561,#562,#563,#564,#565,
#566,#567,#568,#569,#570,#571,#572,#573,#574,#575,#576,#577,#578,#579,#580,
#581,#582,#583,#584,#585,#586,#587));
#589=STYLED_ITEM('',(#590),#597);
#590=PRESENTATION_STYLE_ASSIGNMENT((#591));
#591=SURFACE_STYLE_USAGE(.BOTH.,#592);
#592=SURFACE_SIDE_STYLE('',(#593));
#593=SURFACE_STYLE_FILL_AREA(#594);
#594=FILL_AREA_STYLE('',(#595));
#595=FILL_AREA_STYLE_COLOUR('',#596);
#596=COLOUR_RGB('',0.615686274509804,0.811764705882353,0.929411764705882);
#597=MANIFOLD_SOLID_BREP('Part 1',#588);
#598=SHAPE_DEFINITION_REPRESENTATION(#980,#599);
#599=SHAPE_REPRESENTATION('Part 1',(#600),#975);
#600=AXIS2_PLACEMENT_3D('',#809,#649,#650);
#601=AXIS2_PLACEMENT_3D('',#810,#651,#652);
#602=AXIS2_PLACEMENT_3D('',#819,#657,#658);
#603=AXIS2_PLACEMENT_3D('',#820,#659,#660);
#604=AXIS2_PLACEMENT_3D('',#829,#664,#665);
#605=AXIS2_PLACEMENT_3D('',#833,#667,#668);
#606=AXIS2_PLACEMENT_3D('',#836,#670,#671);
#607=AXIS2_PLACEMENT_3D('',#842,#675,#676);
#608=AXIS2_PLACEMENT_3D('',#851,#681,#682);
#609=AXIS2_PLACEMENT_3D('',#862,#689,#690);
#610=AXIS2_PLACEMENT_3D('',#863,#691,#692);
#611=AXIS2_PLACEMENT_3D('',#866,#694,#695);
#612=AXIS2_PLACEMENT_3D('',#870,#698,#699);
#613=AXIS2_PLACEMENT_3D('',#871,#700,#701);
#614=AXIS2_PLACEMENT_3D('',#872,#702,#703);
#615=AXIS2_PLACEMENT_3D('',#873,#704,#705);
#616=AXIS2_PLACEMENT_3D('',#875,#706,#707);
#617=AXIS2_PLACEMENT_3D('',#876,#708,#709);
#618=AXIS2_PLACEMENT_3D('',#881,#712,#713);
#619=AXIS2_PLACEMENT_3D('',#885,#716,#717);
#620=AXIS2_PLACEMENT_3D('',#902,#727,#728);
#621=AXIS2_PLACEMENT_3D('',#906,#731,#732);
#622=AXIS2_PLACEMENT_3D('',#914,#737,#738);
#623=AXIS2_PLACEMENT_3D('',#918,#741,#742);
#624=AXIS2_PLACEMENT_3D('',#922,#745,#746);
#625=AXIS2_PLACEMENT_3D('',#926,#749,#750);
#626=AXIS2_PLACEMENT_3D('',#930,#753,#754);
#627=AXIS2_PLACEMENT_3D('',#932,#756,#757);
#628=AXIS2_PLACEMENT_3D('',#935,#760,#761);
#629=AXIS2_PLACEMENT_3D('',#936,#762,#763);
#630=AXIS2_PLACEMENT_3D('',#938,#764,#765);
#631=AXIS2_PLACEMENT_3D('',#939,#766,#767);
#632=AXIS2_PLACEMENT_3D('',#940,#768,#769);
#633=AXIS2_PLACEMENT_3D('',#941,#770,#771);
#634=AXIS2_PLACEMENT_3D('',#945,#773,#774);
#635=AXIS2_PLACEMENT_3D('',#949,#776,#777);
#636=AXIS2_PLACEMENT_3D('',#950,#778,#779);
#637=AXIS2_PLACEMENT_3D('',#954,#782,#783);
#638=AXIS2_PLACEMENT_3D('',#955,#784,#785);
#639=AXIS2_PLACEMENT_3D('',#958,#787,#788);
#640=AXIS2_PLACEMENT_3D('',#962,#791,#792);
#641=AXIS2_PLACEMENT_3D('',#963,#793,#794);
#642=AXIS2_PLACEMENT_3D('',#964,#795,#796);
#643=AXIS2_PLACEMENT_3D('',#965,#797,#798);
#644=AXIS2_PLACEMENT_3D('',#967,#799,#800);
#645=AXIS2_PLACEMENT_3D('',#968,#801,#802);
#646=AXIS2_PLACEMENT_3D('',#970,#803,#804);
#647=AXIS2_PLACEMENT_3D('',#971,#805,#806);
#648=AXIS2_PLACEMENT_3D('',#973,#807,#808);
#649=DIRECTION('',(0.,0.,1.));
#650=DIRECTION('',(1.,0.,0.));
#651=DIRECTION('',(0.,0.,1.));
#652=DIRECTION('',(1.,0.,0.));
#653=DIRECTION('',(0.,-1.,0.));
#654=DIRECTION('',(1.,0.,0.));
#655=DIRECTION('',(0.,-1.,0.));
#656=DIRECTION('',(1.,0.,0.));
#657=DIRECTION('',(0.,-1.,0.));
#658=DIRECTION('',(1.,0.,0.));
#659=DIRECTION('',(0.,-1.,0.));
#660=DIRECTION('',(0.,0.,-1.));
#661=DIRECTION('',(0.,0.,1.));
#662=DIRECTION('',(1.,0.,0.));
#663=DIRECTION('',(0.,0.,-1.));
#664=DIRECTION('',(0.,-1.,0.));
#665=DIRECTION('',(0.,0.,-1.));
#666=DIRECTION('',(1.,0.,0.));
#667=DIRECTION('',(0.,-1.,0.));
#668=DIRECTION('',(0.,0.,-1.));
#669=DIRECTION('',(0.,0.,1.));
#670=DIRECTION('',(-1.,0.,0.));
#671=DIRECTION('',(0.,0.,1.));
#672=DIRECTION('',(0.,1.,0.));
#673=DIRECTION('',(0.,1.,0.));
#674=DIRECTION('',(0.,0.,1.));
#675=DIRECTION('',(0.,0.,-1.));
#676=DIRECTION('',(-1.,0.,0.));
#677=DIRECTION('',(0.,1.,0.));
#678=DIRECTION('',(-1.,0.,0.));
#679=DIRECTION('',(0.,1.,0.));
#680=DIRECTION('',(-1.,0.,0.));
#681=DIRECTION('',(1.,0.,0.));
#682=DIRECTION('',(0.,0.,-1.));
#683=DIRECTION('',(0.,0.,-1.));
#684=DIRECTION('',(0.,1.,0.));
#685=DIRECTION('',(0.,1.,0.));
#686=DIRECTION('',(0.,0.,-1.));
#687=DIRECTION('',(0.,-1.,0.));
#688=DIRECTION('',(0.,0.,-1.));
#689=DIRECTION('',(0.,1.,0.));
#690=DIRECTION('',(0.,0.,1.));
#691=DIRECTION('',(0.,-1.,0.));
#692=DIRECTION('',(0.,0.,-1.));
#693=DIRECTION('',(0.,1.,0.));
#694=DIRECTION('',(0.,0.,1.));
#695=DIRECTION('',(1.,0.,0.));
#696=DIRECTION('',(1.,0.,0.));
#697=DIRECTION('',(0.,1.,0.));
#698=DIRECTION('',(0.,1.,0.));
#699=DIRECTION('',(0.,0.,1.));
#700=DIRECTION('',(0.,-1.,0.));
#701=DIRECTION('',(0.,0.,-1.));
#702=DIRECTION('',(0.,1.,0.));
#703=DIRECTION('',(0.,0.,1.));
#704=DIRECTION('',(0.,-1.,0.));
#705=DIRECTION('',(0.,0.,-1.));
#706=DIRECTION('',(0.,-1.,0.));
#707=DIRECTION('',(1.,0.,0.));
#708=DIRECTION('',(0.,1.,0.));
#709=DIRECTION('',(0.,0.,1.));
#710=DIRECTION('',(0.,0.,1.));
#711=DIRECTION('',(1.,0.,0.));
#712=DIRECTION('',(0.,0.,1.));
#713=DIRECTION('',(1.,0.,0.));
#714=DIRECTION('',(0.,1.,0.));
#715=DIRECTION('',(1.,0.,0.));
#716=DIRECTION('',(-1.,0.,0.));
#717=DIRECTION('',(0.,-1.,0.));
#718=DIRECTION('',(0.,-1.,2.69664527391683E-16));
#719=DIRECTION('',(0.,0.,-1.));
#720=DIRECTION('',(0.,0.,-1.));
#721=DIRECTION('',(0.,-1.,3.09835592444653E-16));
#722=DIRECTION('',(0.,0.,1.));
#723=DIRECTION('',(0.,1.,0.));
#724=DIRECTION('',(0.,0.,1.));
#725=DIRECTION('',(0.,1.,0.));
#726=DIRECTION('',(0.,0.,1.));
#727=DIRECTION('',(0.,0.,-1.));
#728=DIRECTION('',(-1.,0.,0.));
#729=DIRECTION('',(0.,1.,0.));
#730=DIRECTION('',(1.,0.,0.));
#731=DIRECTION('',(0.,0.,-1.));
#732=DIRECTION('',(-1.,0.,0.));
#733=DIRECTION('',(1.,0.,0.));
#734=DIRECTION('',(0.,1.,0.));
#735=DIRECTION('',(1.,0.,0.));
#736=DIRECTION('',(0.,-1.,0.));
#737=DIRECTION('',(0.,1.,0.));
#738=DIRECTION('',(0.,0.,1.));
#739=DIRECTION('',(1.,0.,0.));
#740=DIRECTION('',(0.,0.,1.));
#741=DIRECTION('',(0.,3.09835592444653E-16,1.));
#742=DIRECTION('',(0.,-1.,3.09835592444653E-16));
#743=DIRECTION('',(1.,0.,0.));
#744=DIRECTION('',(0.,-1.,3.09835592444653E-16));
#745=DIRECTION('',(0.,-1.,0.));
#746=DIRECTION('',(0.,0.,-1.));
#747=DIRECTION('',(1.,0.,0.));
#748=DIRECTION('',(0.,0.,-1.));
#749=DIRECTION('',(0.,2.69664527391683E-16,1.));
#750=DIRECTION('',(0.,-1.,2.69664527391683E-16));
#751=DIRECTION('',(1.,0.,0.));
#752=DIRECTION('',(0.,-1.,2.69664527391683E-16));
#753=DIRECTION('',(0.,1.,0.));
#754=DIRECTION('',(0.,0.,1.));
#755=DIRECTION('',(0.,0.,1.));
#756=DIRECTION('',(-1.,0.,0.));
#757=DIRECTION('',(0.,-1.,0.));
#758=DIRECTION('',(0.,0.,1.));
#759=DIRECTION('',(0.,0.,-1.));
#760=DIRECTION('',(0.,1.,0.));
#761=DIRECTION('',(0.,0.,1.));
#762=DIRECTION('',(0.,1.,0.));
#763=DIRECTION('',(0.,0.,1.));
#764=DIRECTION('',(0.,1.,0.));
#765=DIRECTION('',(1.,0.,0.));
#766=DIRECTION('',(0.,1.,0.));
#767=DIRECTION('',(0.,0.,-1.));
#768=DIRECTION('',(0.,1.,0.));
#769=DIRECTION('',(1.,0.,0.));
#770=DIRECTION('',(0.,-1.,0.));
#771=DIRECTION('',(0.,0.,-1.));
#772=DIRECTION('',(0.,0.,1.));
#773=DIRECTION('',(0.,-1.,0.));
#774=DIRECTION('',(0.,0.,-1.));
#775=DIRECTION('',(1.,0.,0.));
#776=DIRECTION('',(0.,-1.,0.));
#777=DIRECTION('',(0.,0.,-1.));
#778=DIRECTION('',(-1.,0.,0.));
#779=DIRECTION('',(0.,0.,1.));
#780=DIRECTION('',(0.,0.,1.));
#781=DIRECTION('',(0.,-1.,0.));
#782=DIRECTION('',(0.,-1.,0.));
#783=DIRECTION('',(0.,0.,1.));
#784=DIRECTION('',(0.,-1.,0.));
#785=DIRECTION('',(0.,0.,-1.));
#786=DIRECTION('',(0.,-1.,0.));
#787=DIRECTION('',(0.,0.,1.));
#788=DIRECTION('',(1.,0.,0.));
#789=DIRECTION('',(1.,0.,0.));
#790=DIRECTION('',(0.,-1.,0.));
#791=DIRECTION('',(0.,-1.,0.));
#792=DIRECTION('',(0.,0.,1.));
#793=DIRECTION('',(0.,-1.,0.));
#794=DIRECTION('',(0.,0.,-1.));
#795=DIRECTION('',(0.,-1.,0.));
#796=DIRECTION('',(0.,0.,1.));
#797=DIRECTION('',(0.,-1.,0.));
#798=DIRECTION('',(0.,0.,-1.));
#799=DIRECTION('',(0.,1.,0.));
#800=DIRECTION('',(1.,0.,0.));
#801=DIRECTION('',(0.,1.,0.));
#802=DIRECTION('',(0.,0.,1.));
#803=DIRECTION('',(0.,-1.,0.));
#804=DIRECTION('',(0.,0.,1.));
#805=DIRECTION('',(0.,-1.,0.));
#806=DIRECTION('',(0.,0.,-1.));
#807=DIRECTION('',(0.,-1.,0.));
#808=DIRECTION('',(1.,0.,0.));
#809=CARTESIAN_POINT('',(0.,0.,0.));
#810=CARTESIAN_POINT('',(-0.05,-0.0278340430629965,0.0136769166052869));
#811=CARTESIAN_POINT('',(-0.05,-0.0278340430629965,0.0136769166052869));
#812=CARTESIAN_POINT('',(-0.05,-0.0198657891548128,0.0136769166052869));
#813=CARTESIAN_POINT('',(-0.05,-0.0341342108451873,0.0136769166052869));
#814=CARTESIAN_POINT('',(-0.05,-0.0341342108451873,0.0136769166052869));
#815=CARTESIAN_POINT('',(-0.025,-0.0341342108451873,0.0136769166052869));
#816=CARTESIAN_POINT('',(-0.025,-0.0278340430629965,0.0136769166052869));
#817=CARTESIAN_POINT('',(-0.025,-0.0198657891548128,0.0136769166052869));
#818=CARTESIAN_POINT('',(-0.05,-0.0198657891548128,0.0136769166052869));
#819=CARTESIAN_POINT('',(-6.93889390390723E-18,-0.002,0.025));
#820=CARTESIAN_POINT('',(0.,-0.002,0.025));
#821=CARTESIAN_POINT('',(0.,-0.002,0.02));
#822=CARTESIAN_POINT('',(-0.025,-0.002,0.025));
#823=CARTESIAN_POINT('',(-0.025,-0.002,0.0025));
#824=CARTESIAN_POINT('',(-0.025,-0.002,0.0375));
#825=CARTESIAN_POINT('',(0.,-0.002,0.0025));
#826=CARTESIAN_POINT('',(0.025,-0.002,0.0025));
#827=CARTESIAN_POINT('',(0.025,-0.002,0.0025));
#828=CARTESIAN_POINT('',(0.025,-0.002,0.045));
#829=CARTESIAN_POINT('',(0.02,-0.002,0.045));
#830=CARTESIAN_POINT('',(0.02,-0.002,0.05));
#831=CARTESIAN_POINT('',(-6.93889390390723E-18,-0.002,0.05));
#832=CARTESIAN_POINT('',(-0.02,-0.002,0.05));
#833=CARTESIAN_POINT('',(-0.02,-0.002,0.045));
#834=CARTESIAN_POINT('',(-0.025,-0.002,0.045));
#835=CARTESIAN_POINT('',(-0.025,-0.002,0.025));
#836=CARTESIAN_POINT('',(-0.025,-0.002,0.025));
#837=CARTESIAN_POINT('',(-0.025,-0.0035,0.0375));
#838=CARTESIAN_POINT('',(-0.025,0.,0.0375));
#839=CARTESIAN_POINT('',(-0.025,-0.002,0.045));
#840=CARTESIAN_POINT('',(-0.025,0.,0.045));
#841=CARTESIAN_POINT('',(-0.025,0.,0.025));
#842=CARTESIAN_POINT('',(-0.0225,-0.002,0.));
#843=CARTESIAN_POINT('',(-0.05,-0.002,0.));
#844=CARTESIAN_POINT('',(-0.05,-0.054,0.));
#845=CARTESIAN_POINT('',(-0.05,0.,0.));
#846=CARTESIAN_POINT('',(-0.0225,0.,0.));
#847=CARTESIAN_POINT('',(0.025,0.,0.));
#848=CARTESIAN_POINT('',(0.025,-0.002,0.));
#849=CARTESIAN_POINT('',(0.025,-0.054,0.));
#850=CARTESIAN_POINT('',(-0.0225,-0.054,0.));
#851=CARTESIAN_POINT('',(0.025,-0.002,0.0025));
#852=CARTESIAN_POINT('',(0.025,0.,0.0025));
#853=CARTESIAN_POINT('',(0.025,0.,0.045));
#854=CARTESIAN_POINT('',(0.025,-0.002,0.045));
#855=CARTESIAN_POINT('',(0.025,-0.052,0.0025));
#856=CARTESIAN_POINT('',(0.025,-0.052,0.0025));
#857=CARTESIAN_POINT('',(0.025,-0.052,0.0025));
#858=CARTESIAN_POINT('',(0.025,-0.052,0.045));
#859=CARTESIAN_POINT('',(0.025,-0.052,0.045));
#860=CARTESIAN_POINT('',(0.025,-0.054,0.045));
#861=CARTESIAN_POINT('',(0.025,-0.054,0.0025));
#862=CARTESIAN_POINT('',(0.02,-0.002,0.045));
#863=CARTESIAN_POINT('',(0.02,0.,0.045));
#864=CARTESIAN_POINT('',(0.02,0.,0.05));
#865=CARTESIAN_POINT('',(0.02,-0.002,0.05));
#866=CARTESIAN_POINT('',(-6.93889390390723E-18,-0.002,0.05));
#867=CARTESIAN_POINT('',(-6.93889390390723E-18,0.,0.05));
#868=CARTESIAN_POINT('',(-0.02,0.,0.05));
#869=CARTESIAN_POINT('',(-0.02,-0.002,0.05));
#870=CARTESIAN_POINT('',(-0.02,-0.002,0.045));
#871=CARTESIAN_POINT('',(-0.02,0.,0.045));
#872=CARTESIAN_POINT('',(0.,-0.002,0.025));
#873=CARTESIAN_POINT('',(0.,0.,0.025));
#874=CARTESIAN_POINT('',(0.,0.,0.02));
#875=CARTESIAN_POINT('',(-6.93889390390723E-18,0.,0.025));
#876=CARTESIAN_POINT('',(-0.0375,0.,0.0275));
#877=CARTESIAN_POINT('',(-0.0375,0.,0.0305));
#878=CARTESIAN_POINT('',(-0.05,0.,0.025));
#879=CARTESIAN_POINT('',(-0.05,0.,0.0375));
#880=CARTESIAN_POINT('',(-0.05,0.,0.0375));
#881=CARTESIAN_POINT('',(0.,-0.052,0.0025));
#882=CARTESIAN_POINT('',(-0.025,-0.052,0.0025));
#883=CARTESIAN_POINT('',(-0.025,-0.052,0.0025));
#884=CARTESIAN_POINT('',(0.,-0.052,0.0025));
#885=CARTESIAN_POINT('',(-0.025,-0.026,0.0225));
#886=CARTESIAN_POINT('',(-0.025,-0.0134328945774064,0.0175));
#887=CARTESIAN_POINT('',(-0.025,-0.007,0.0175));
#888=CARTESIAN_POINT('',(-0.025,-0.0198657891548128,0.0175));
#889=CARTESIAN_POINT('',(-0.025,-0.0198657891548128,0.0155884583026434));
#890=CARTESIAN_POINT('',(-0.025,-0.0341342108451873,0.0155884583026434));
#891=CARTESIAN_POINT('',(-0.025,-0.0341342108451873,0.0175));
#892=CARTESIAN_POINT('',(-0.025,-0.0414011484855902,0.0175));
#893=CARTESIAN_POINT('',(-0.025,-0.047,0.0175));
#894=CARTESIAN_POINT('',(-0.025,-0.047,0.0275));
#895=CARTESIAN_POINT('',(-0.025,-0.047,0.0375));
#896=CARTESIAN_POINT('',(-0.025,-0.0495,0.0375));
#897=CARTESIAN_POINT('',(-0.025,-0.052,0.0375));
#898=CARTESIAN_POINT('',(-0.025,-0.052,0.01875));
#899=CARTESIAN_POINT('',(-0.025,-0.0035,0.0375));
#900=CARTESIAN_POINT('',(-0.025,-0.007,0.0375));
#901=CARTESIAN_POINT('',(-0.025,-0.007,0.0275));
#902=CARTESIAN_POINT('',(-0.05,-0.0035,0.0375));
#903=CARTESIAN_POINT('',(-0.05,-0.0035,0.0375));
#904=CARTESIAN_POINT('',(-0.05,-0.007,0.0375));
#905=CARTESIAN_POINT('',(-0.05,-0.007,0.0375));
#906=CARTESIAN_POINT('',(-0.05,-0.0495,0.0375));
#907=CARTESIAN_POINT('',(-0.05,-0.047,0.0375));
#908=CARTESIAN_POINT('',(-0.05,-0.047,0.0375));
#909=CARTESIAN_POINT('',(-0.05,-0.0495,0.0375));
#910=CARTESIAN_POINT('',(-0.05,-0.054,0.0375));
#911=CARTESIAN_POINT('',(-0.05,-0.054,0.0375));
#912=CARTESIAN_POINT('',(-0.025,-0.054,0.0375));
#913=CARTESIAN_POINT('',(-0.025,-0.0505,0.0375));
#914=CARTESIAN_POINT('',(-0.05,-0.047,0.0275));
#915=CARTESIAN_POINT('',(-0.05,-0.047,0.0175));
#916=CARTESIAN_POINT('',(-0.05,-0.047,0.0175));
#917=CARTESIAN_POINT('',(-0.05,-0.047,0.0275));
#918=CARTESIAN_POINT('',(-0.05,-0.0414011484855902,0.0175));
#919=CARTESIAN_POINT('',(-0.05,-0.0341342108451873,0.0175));
#920=CARTESIAN_POINT('',(-0.05,-0.0341342108451873,0.0175));
#921=CARTESIAN_POINT('',(-0.05,-0.0414011484855902,0.0175));
#922=CARTESIAN_POINT('',(-0.05,-0.0198657891548128,0.0155884583026434));
#923=CARTESIAN_POINT('',(-0.05,-0.0198657891548128,0.0175));
#924=CARTESIAN_POINT('',(-0.05,-0.0198657891548128,0.0175));
#925=CARTESIAN_POINT('',(-0.05,-0.0198657891548128,0.0155884583026434));
#926=CARTESIAN_POINT('',(-0.05,-0.0134328945774064,0.0175));
#927=CARTESIAN_POINT('',(-0.05,-0.007,0.0175));
#928=CARTESIAN_POINT('',(-0.05,-0.007,0.0175));
#929=CARTESIAN_POINT('',(-0.05,-0.0134328945774064,0.0175));
#930=CARTESIAN_POINT('',(-0.05,-0.007,0.0275));
#931=CARTESIAN_POINT('',(-0.05,-0.007,0.0275));
#932=CARTESIAN_POINT('',(-0.05,-0.026,0.0225));
#933=CARTESIAN_POINT('',(-0.05,-0.054,0.025));
#934=CARTESIAN_POINT('',(-0.05,-0.0341342108451873,0.0155884583026434));
#935=CARTESIAN_POINT('',(-0.0375,-0.025,0.0275));
#936=CARTESIAN_POINT('',(-0.0375,-0.002,0.0275));
#937=CARTESIAN_POINT('',(-0.0375,-0.002,0.0305));
#938=CARTESIAN_POINT('',(-6.93889390390723E-18,-0.002,0.025));
#939=CARTESIAN_POINT('',(-0.05,-0.0341342108451873,0.0155884583026434));
#940=CARTESIAN_POINT('',(-6.93889390390723E-18,-0.052,0.025));
#941=CARTESIAN_POINT('',(0.,-0.052,0.025));
#942=CARTESIAN_POINT('',(0.,-0.052,0.02));
#943=CARTESIAN_POINT('',(-0.025,-0.052,0.025));
#944=CARTESIAN_POINT('',(-0.025,-0.052,0.045));
#945=CARTESIAN_POINT('',(-0.02,-0.052,0.045));
#946=CARTESIAN_POINT('',(-0.02,-0.052,0.05));
#947=CARTESIAN_POINT('',(-6.93889390390723E-18,-0.052,0.05));
#948=CARTESIAN_POINT('',(0.02,-0.052,0.05));
#949=CARTESIAN_POINT('',(0.02,-0.052,0.045));
#950=CARTESIAN_POINT('',(-0.025,-0.052,0.025));
#951=CARTESIAN_POINT('',(-0.025,-0.054,0.025));
#952=CARTESIAN_POINT('',(-0.025,-0.054,0.045));
#953=CARTESIAN_POINT('',(-0.025,-0.052,0.045));
#954=CARTESIAN_POINT('',(0.02,-0.052,0.045));
#955=CARTESIAN_POINT('',(0.02,-0.054,0.045));
#956=CARTESIAN_POINT('',(0.02,-0.054,0.05));
#957=CARTESIAN_POINT('',(0.02,-0.052,0.05));
#958=CARTESIAN_POINT('',(-6.93889390390723E-18,-0.052,0.05));
#959=CARTESIAN_POINT('',(-6.93889390390723E-18,-0.054,0.05));
#960=CARTESIAN_POINT('',(-0.02,-0.054,0.05));
#961=CARTESIAN_POINT('',(-0.02,-0.052,0.05));
#962=CARTESIAN_POINT('',(-0.02,-0.052,0.045));
#963=CARTESIAN_POINT('',(-0.02,-0.054,0.045));
#964=CARTESIAN_POINT('',(0.,-0.052,0.025));
#965=CARTESIAN_POINT('',(0.,-0.054,0.025));
#966=CARTESIAN_POINT('',(0.,-0.054,0.02));
#967=CARTESIAN_POINT('',(-6.93889390390723E-18,-0.054,0.025));
#968=CARTESIAN_POINT('',(-0.0375,-0.054,0.0275));
#969=CARTESIAN_POINT('',(-0.0375,-0.054,0.0305));
#970=CARTESIAN_POINT('',(-0.0375,-0.029,0.0275));
#971=CARTESIAN_POINT('',(-0.0375,-0.052,0.0275));
#972=CARTESIAN_POINT('',(-0.0375,-0.052,0.0245));
#973=CARTESIAN_POINT('',(-6.93889390390723E-18,-0.052,0.025));
#974=MECHANICAL_DESIGN_GEOMETRIC_PRESENTATION_REPRESENTATION('',(#589),
#975);
#975=(
GEOMETRIC_REPRESENTATION_CONTEXT(3)
GLOBAL_UNCERTAINTY_ASSIGNED_CONTEXT((#976))
GLOBAL_UNIT_ASSIGNED_CONTEXT((#979,#978,#977))
REPRESENTATION_CONTEXT('Part 1','TOP_LEVEL_ASSEMBLY_PART')
);
#976=UNCERTAINTY_MEASURE_WITH_UNIT(LENGTH_MEASURE(1.E-8),#979,
'DISTANCE_ACCURACY_VALUE','Maximum Tolerance applied to model');
#977=(
NAMED_UNIT(*)
SI_UNIT($,.STERADIAN.)
SOLID_ANGLE_UNIT()
);
#978=(
NAMED_UNIT(*)
PLANE_ANGLE_UNIT()
SI_UNIT($,.RADIAN.)
);
#979=(
LENGTH_UNIT()
NAMED_UNIT(*)
SI_UNIT($,.METRE.)
);
#980=PRODUCT_DEFINITION_SHAPE('','',#981);
#981=PRODUCT_DEFINITION('','',#983,#982);
#982=PRODUCT_DEFINITION_CONTEXT('',#989,'design');
#983=PRODUCT_DEFINITION_FORMATION_WITH_SPECIFIED_SOURCE('','',#985,
 .NOT_KNOWN.);
#984=PRODUCT_RELATED_PRODUCT_CATEGORY('','',(#985));
#985=PRODUCT('Part 1','Part 1','Part 1',(#987));
#986=PRODUCT_CATEGORY('','');
#987=PRODUCT_CONTEXT('',#989,'mechanical');
#988=APPLICATION_PROTOCOL_DEFINITION('international standard',
'ap242_managed_model_based_3d_engineering',2020,#989);
#989=APPLICATION_CONTEXT('managed model based 3d engineering');
ENDSEC;
END-ISO-10303-21;
