ISO-10303-21;
HEADER;
/* Generated by software containing ST-Developer
 * from STEP Tools, Inc. (www.steptools.com) 
 */
/* OPTION: using custom renumber hook */

FILE_DESCRIPTION(
/* description */ ('STEP AP242 Edition 2',
'CAx-IF Rec.Pracs.---Representation and Presentation of Product Manufa
cturing Information (PMI)---4.0---2014-10-13',
'CAx-IF Rec.Pracs.---3D Tessellated Geometry---0.4---2014-09-14','2;1',
'CAx-IF Rec.Pracs.---User Defined Attributes---1.5---2016-08-15'),
/* implementation_level */ '2;1');

FILE_NAME(
/* name */ 'Assembly 1 - Part 1 (1)',
/* time_stamp */ '2026-08-21T17:11:04Z',
/* author */ (''),
/* organization */ (''),
/* preprocessor_version */ 'ST-DEVELOPER v20',
/* originating_system */ 'ONSHAPE BY PTC INC, 1.219',
/* authorisation */ '  ');

FILE_SCHEMA (('AP242_MANAGED_MODEL_BASED_3D_ENGINEERING_MIM_LF { 1 0 10303 442 3 1 4 }'));
ENDSEC;

DATA;
#10=SHAPE_REPRESENTATION_RELATIONSHIP('','',#624,#11);
#11=ADVANCED_BREP_SHAPE_REPRESENTATION('',(#622),#1003);
#12=CYLINDRICAL_SURFACE('',#639,0.005);
#13=CYLINDRICAL_SURFACE('',#642,0.002);
#14=CYLINDRICAL_SURFACE('',#644,0.002);
#15=CYLINDRICAL_SURFACE('',#646,0.002);
#16=CYLINDRICAL_SURFACE('',#648,0.012);
#17=CYLINDRICAL_SURFACE('',#650,0.005);
#18=CYLINDRICAL_SURFACE('',#652,0.002);
#19=CYLINDRICAL_SURFACE('',#668,0.003);
#20=CIRCLE('',#629,0.012);
#21=CIRCLE('',#630,0.002);
#22=CIRCLE('',#631,0.002);
#23=CIRCLE('',#632,0.002);
#24=CIRCLE('',#633,0.002);
#25=CIRCLE('',#634,0.005);
#26=CIRCLE('',#635,0.005);
#27=CIRCLE('',#640,0.005);
#28=CIRCLE('',#643,0.002);
#29=CIRCLE('',#645,0.002);
#30=CIRCLE('',#647,0.002);
#31=CIRCLE('',#649,0.012);
#32=CIRCLE('',#651,0.005);
#33=CIRCLE('',#653,0.002);
#34=CIRCLE('',#655,0.003);
#35=CIRCLE('',#667,0.003);
#36=ORIENTED_EDGE('',*,*,#196,.T.);
#37=ORIENTED_EDGE('',*,*,#197,.T.);
#38=ORIENTED_EDGE('',*,*,#198,.T.);
#39=ORIENTED_EDGE('',*,*,#199,.T.);
#40=ORIENTED_EDGE('',*,*,#200,.F.);
#41=ORIENTED_EDGE('',*,*,#201,.F.);
#42=ORIENTED_EDGE('',*,*,#202,.T.);
#43=ORIENTED_EDGE('',*,*,#203,.F.);
#44=ORIENTED_EDGE('',*,*,#204,.F.);
#45=ORIENTED_EDGE('',*,*,#205,.F.);
#46=ORIENTED_EDGE('',*,*,#206,.T.);
#47=ORIENTED_EDGE('',*,*,#207,.T.);
#48=ORIENTED_EDGE('',*,*,#208,.F.);
#49=ORIENTED_EDGE('',*,*,#209,.F.);
#50=ORIENTED_EDGE('',*,*,#210,.T.);
#51=ORIENTED_EDGE('',*,*,#211,.F.);
#52=ORIENTED_EDGE('',*,*,#198,.F.);
#53=ORIENTED_EDGE('',*,*,#212,.T.);
#54=ORIENTED_EDGE('',*,*,#213,.T.);
#55=ORIENTED_EDGE('',*,*,#214,.F.);
#56=ORIENTED_EDGE('',*,*,#210,.F.);
#57=ORIENTED_EDGE('',*,*,#215,.F.);
#58=ORIENTED_EDGE('',*,*,#216,.F.);
#59=ORIENTED_EDGE('',*,*,#217,.F.);
#60=ORIENTED_EDGE('',*,*,#218,.T.);
#61=ORIENTED_EDGE('',*,*,#219,.F.);
#62=ORIENTED_EDGE('',*,*,#220,.F.);
#63=ORIENTED_EDGE('',*,*,#221,.F.);
#64=ORIENTED_EDGE('',*,*,#222,.F.);
#65=ORIENTED_EDGE('',*,*,#223,.F.);
#66=ORIENTED_EDGE('',*,*,#224,.F.);
#67=ORIENTED_EDGE('',*,*,#225,.F.);
#68=ORIENTED_EDGE('',*,*,#226,.T.);
#69=ORIENTED_EDGE('',*,*,#227,.F.);
#70=ORIENTED_EDGE('',*,*,#228,.T.);
#71=ORIENTED_EDGE('',*,*,#229,.F.);
#72=ORIENTED_EDGE('',*,*,#230,.T.);
#73=ORIENTED_EDGE('',*,*,#231,.F.);
#74=ORIENTED_EDGE('',*,*,#232,.F.);
#75=ORIENTED_EDGE('',*,*,#231,.T.);
#76=ORIENTED_EDGE('',*,*,#233,.T.);
#77=ORIENTED_EDGE('',*,*,#234,.F.);
#78=ORIENTED_EDGE('',*,*,#235,.F.);
#79=ORIENTED_EDGE('',*,*,#236,.F.);
#80=ORIENTED_EDGE('',*,*,#215,.T.);
#81=ORIENTED_EDGE('',*,*,#209,.T.);
#82=ORIENTED_EDGE('',*,*,#237,.F.);
#83=ORIENTED_EDGE('',*,*,#238,.F.);
#84=ORIENTED_EDGE('',*,*,#227,.T.);
#85=ORIENTED_EDGE('',*,*,#239,.F.);
#86=ORIENTED_EDGE('',*,*,#216,.T.);
#87=ORIENTED_EDGE('',*,*,#236,.T.);
#88=ORIENTED_EDGE('',*,*,#240,.T.);
#89=ORIENTED_EDGE('',*,*,#241,.F.);
#90=ORIENTED_EDGE('',*,*,#228,.F.);
#91=ORIENTED_EDGE('',*,*,#238,.T.);
#92=ORIENTED_EDGE('',*,*,#242,.F.);
#93=ORIENTED_EDGE('',*,*,#243,.F.);
#94=ORIENTED_EDGE('',*,*,#229,.T.);
#95=ORIENTED_EDGE('',*,*,#241,.T.);
#96=ORIENTED_EDGE('',*,*,#223,.T.);
#97=ORIENTED_EDGE('',*,*,#244,.F.);
#98=ORIENTED_EDGE('',*,*,#222,.T.);
#99=ORIENTED_EDGE('',*,*,#245,.F.);
#100=ORIENTED_EDGE('',*,*,#221,.T.);
#101=ORIENTED_EDGE('',*,*,#246,.F.);
#102=ORIENTED_EDGE('',*,*,#220,.T.);
#103=ORIENTED_EDGE('',*,*,#247,.F.);
#104=ORIENTED_EDGE('',*,*,#248,.T.);
#105=ORIENTED_EDGE('',*,*,#233,.F.);
#106=ORIENTED_EDGE('',*,*,#230,.F.);
#107=ORIENTED_EDGE('',*,*,#243,.T.);
#108=ORIENTED_EDGE('',*,*,#224,.T.);
#109=ORIENTED_EDGE('',*,*,#249,.F.);
#110=ORIENTED_EDGE('',*,*,#250,.F.);
#111=ORIENTED_EDGE('',*,*,#235,.T.);
#112=ORIENTED_EDGE('',*,*,#208,.T.);
#113=ORIENTED_EDGE('',*,*,#251,.T.);
#114=ORIENTED_EDGE('',*,*,#234,.T.);
#115=ORIENTED_EDGE('',*,*,#248,.F.);
#116=ORIENTED_EDGE('',*,*,#242,.T.);
#117=ORIENTED_EDGE('',*,*,#240,.F.);
#118=ORIENTED_EDGE('',*,*,#237,.T.);
#119=ORIENTED_EDGE('',*,*,#247,.T.);
#120=ORIENTED_EDGE('',*,*,#246,.T.);
#121=ORIENTED_EDGE('',*,*,#245,.T.);
#122=ORIENTED_EDGE('',*,*,#244,.T.);
#123=ORIENTED_EDGE('',*,*,#249,.T.);
#124=ORIENTED_EDGE('',*,*,#226,.F.);
#125=ORIENTED_EDGE('',*,*,#252,.F.);
#126=ORIENTED_EDGE('',*,*,#217,.T.);
#127=ORIENTED_EDGE('',*,*,#239,.T.);
#128=ORIENTED_EDGE('',*,*,#253,.F.);
#129=ORIENTED_EDGE('',*,*,#218,.F.);
#130=ORIENTED_EDGE('',*,*,#252,.T.);
#131=ORIENTED_EDGE('',*,*,#225,.T.);
#132=ORIENTED_EDGE('',*,*,#254,.F.);
#133=ORIENTED_EDGE('',*,*,#255,.F.);
#134=ORIENTED_EDGE('',*,*,#256,.T.);
#135=ORIENTED_EDGE('',*,*,#257,.T.);
#136=ORIENTED_EDGE('',*,*,#258,.T.);
#137=ORIENTED_EDGE('',*,*,#259,.F.);
#138=ORIENTED_EDGE('',*,*,#260,.T.);
#139=ORIENTED_EDGE('',*,*,#261,.T.);
#140=ORIENTED_EDGE('',*,*,#254,.T.);
#141=ORIENTED_EDGE('',*,*,#232,.T.);
#142=ORIENTED_EDGE('',*,*,#251,.F.);
#143=ORIENTED_EDGE('',*,*,#207,.F.);
#144=ORIENTED_EDGE('',*,*,#262,.T.);
#145=ORIENTED_EDGE('',*,*,#253,.T.);
#146=ORIENTED_EDGE('',*,*,#263,.F.);
#147=ORIENTED_EDGE('',*,*,#199,.F.);
#148=ORIENTED_EDGE('',*,*,#219,.T.);
#149=ORIENTED_EDGE('',*,*,#261,.F.);
#150=ORIENTED_EDGE('',*,*,#264,.F.);
#151=ORIENTED_EDGE('',*,*,#200,.T.);
#152=ORIENTED_EDGE('',*,*,#263,.T.);
#153=ORIENTED_EDGE('',*,*,#260,.F.);
#154=ORIENTED_EDGE('',*,*,#265,.F.);
#155=ORIENTED_EDGE('',*,*,#201,.T.);
#156=ORIENTED_EDGE('',*,*,#264,.T.);
#157=ORIENTED_EDGE('',*,*,#259,.T.);
#158=ORIENTED_EDGE('',*,*,#266,.F.);
#159=ORIENTED_EDGE('',*,*,#202,.F.);
#160=ORIENTED_EDGE('',*,*,#265,.T.);
#161=ORIENTED_EDGE('',*,*,#258,.F.);
#162=ORIENTED_EDGE('',*,*,#267,.F.);
#163=ORIENTED_EDGE('',*,*,#203,.T.);
#164=ORIENTED_EDGE('',*,*,#266,.T.);
#165=ORIENTED_EDGE('',*,*,#257,.F.);
#166=ORIENTED_EDGE('',*,*,#268,.F.);
#167=ORIENTED_EDGE('',*,*,#204,.T.);
#168=ORIENTED_EDGE('',*,*,#267,.T.);
#169=ORIENTED_EDGE('',*,*,#256,.F.);
#170=ORIENTED_EDGE('',*,*,#269,.F.);
#171=ORIENTED_EDGE('',*,*,#205,.T.);
#172=ORIENTED_EDGE('',*,*,#268,.T.);
#173=ORIENTED_EDGE('',*,*,#270,.T.);
#174=ORIENTED_EDGE('',*,*,#255,.T.);
#175=ORIENTED_EDGE('',*,*,#262,.F.);
#176=ORIENTED_EDGE('',*,*,#206,.F.);
#177=ORIENTED_EDGE('',*,*,#269,.T.);
#178=ORIENTED_EDGE('',*,*,#250,.T.);
#179=ORIENTED_EDGE('',*,*,#270,.F.);
#180=ORIENTED_EDGE('',*,*,#212,.F.);
#181=ORIENTED_EDGE('',*,*,#197,.F.);
#182=ORIENTED_EDGE('',*,*,#271,.T.);
#183=ORIENTED_EDGE('',*,*,#272,.T.);
#184=ORIENTED_EDGE('',*,*,#214,.T.);
#185=ORIENTED_EDGE('',*,*,#273,.F.);
#186=ORIENTED_EDGE('',*,*,#274,.F.);
#187=ORIENTED_EDGE('',*,*,#211,.T.);
#188=ORIENTED_EDGE('',*,*,#213,.F.);
#189=ORIENTED_EDGE('',*,*,#272,.F.);
#190=ORIENTED_EDGE('',*,*,#275,.T.);
#191=ORIENTED_EDGE('',*,*,#273,.T.);
#192=ORIENTED_EDGE('',*,*,#271,.F.);
#193=ORIENTED_EDGE('',*,*,#196,.F.);
#194=ORIENTED_EDGE('',*,*,#274,.T.);
#195=ORIENTED_EDGE('',*,*,#275,.F.);
#196=EDGE_CURVE('',#276,#277,#333,.T.);
#197=EDGE_CURVE('',#277,#278,#334,.T.);
#198=EDGE_CURVE('',#278,#279,#335,.T.);
#199=EDGE_CURVE('',#279,#280,#336,.T.);
#200=EDGE_CURVE('',#281,#280,#337,.T.);
#201=EDGE_CURVE('',#282,#281,#338,.T.);
#202=EDGE_CURVE('',#282,#283,#339,.T.);
#203=EDGE_CURVE('',#284,#283,#340,.T.);
#204=EDGE_CURVE('',#285,#284,#341,.T.);
#205=EDGE_CURVE('',#286,#285,#342,.T.);
#206=EDGE_CURVE('',#286,#287,#343,.T.);
#207=EDGE_CURVE('',#287,#288,#344,.T.);
#208=EDGE_CURVE('',#289,#288,#345,.T.);
#209=EDGE_CURVE('',#290,#289,#346,.T.);
#210=EDGE_CURVE('',#290,#291,#347,.T.);
#211=EDGE_CURVE('',#276,#291,#348,.T.);
#212=EDGE_CURVE('',#278,#292,#349,.T.);
#213=EDGE_CURVE('',#292,#293,#350,.T.);
#214=EDGE_CURVE('',#291,#293,#351,.T.);
#215=EDGE_CURVE('',#294,#290,#352,.T.);
#216=EDGE_CURVE('',#295,#294,#353,.T.);
#217=EDGE_CURVE('',#296,#295,#354,.T.);
#218=EDGE_CURVE('',#296,#297,#355,.T.);
#219=EDGE_CURVE('',#279,#297,#356,.T.);
#220=EDGE_CURVE('',#298,#298,#20,.T.);
#221=EDGE_CURVE('',#299,#299,#21,.T.);
#222=EDGE_CURVE('',#300,#300,#22,.T.);
#223=EDGE_CURVE('',#301,#301,#23,.T.);
#224=EDGE_CURVE('',#302,#302,#24,.T.);
#225=EDGE_CURVE('',#303,#304,#357,.T.);
#226=EDGE_CURVE('',#303,#305,#358,.T.);
#227=EDGE_CURVE('',#306,#305,#359,.T.);
#228=EDGE_CURVE('',#306,#307,#25,.T.);
#229=EDGE_CURVE('',#308,#307,#360,.T.);
#230=EDGE_CURVE('',#308,#309,#26,.T.);
#231=EDGE_CURVE('',#304,#309,#361,.T.);
#232=EDGE_CURVE('',#304,#310,#362,.T.);
#233=EDGE_CURVE('',#309,#311,#363,.T.);
#234=EDGE_CURVE('',#310,#311,#364,.T.);
#235=EDGE_CURVE('',#312,#289,#365,.T.);
#236=EDGE_CURVE('',#294,#312,#366,.T.);
#237=EDGE_CURVE('',#313,#312,#367,.T.);
#238=EDGE_CURVE('',#306,#313,#368,.T.);
#239=EDGE_CURVE('',#295,#305,#369,.T.);
#240=EDGE_CURVE('',#313,#314,#27,.T.);
#241=EDGE_CURVE('',#307,#314,#370,.T.);
#242=EDGE_CURVE('',#315,#314,#371,.T.);
#243=EDGE_CURVE('',#308,#315,#372,.T.);
#244=EDGE_CURVE('',#316,#316,#28,.T.);
#245=EDGE_CURVE('',#317,#317,#29,.T.);
#246=EDGE_CURVE('',#318,#318,#30,.T.);
#247=EDGE_CURVE('',#319,#319,#31,.T.);
#248=EDGE_CURVE('',#315,#311,#32,.T.);
#249=EDGE_CURVE('',#320,#320,#33,.T.);
#250=EDGE_CURVE('',#321,#321,#34,.T.);
#251=EDGE_CURVE('',#288,#310,#373,.T.);
#252=EDGE_CURVE('',#296,#303,#374,.T.);
#253=EDGE_CURVE('',#297,#322,#375,.T.);
#254=EDGE_CURVE('',#323,#304,#376,.T.);
#255=EDGE_CURVE('',#324,#323,#377,.T.);
#256=EDGE_CURVE('',#324,#325,#378,.T.);
#257=EDGE_CURVE('',#325,#326,#379,.T.);
#258=EDGE_CURVE('',#326,#327,#380,.T.);
#259=EDGE_CURVE('',#328,#327,#381,.T.);
#260=EDGE_CURVE('',#328,#329,#382,.T.);
#261=EDGE_CURVE('',#329,#322,#383,.T.);
#262=EDGE_CURVE('',#287,#323,#384,.T.);
#263=EDGE_CURVE('',#280,#322,#385,.T.);
#264=EDGE_CURVE('',#281,#329,#386,.T.);
#265=EDGE_CURVE('',#282,#328,#387,.T.);
#266=EDGE_CURVE('',#283,#327,#388,.T.);
#267=EDGE_CURVE('',#284,#326,#389,.T.);
#268=EDGE_CURVE('',#285,#325,#390,.T.);
#269=EDGE_CURVE('',#286,#324,#391,.T.);
#270=EDGE_CURVE('',#330,#330,#35,.T.);
#271=EDGE_CURVE('',#277,#331,#392,.T.);
#272=EDGE_CURVE('',#331,#292,#393,.T.);
#273=EDGE_CURVE('',#332,#293,#394,.T.);
#274=EDGE_CURVE('',#276,#332,#395,.T.);
#275=EDGE_CURVE('',#331,#332,#396,.T.);
#276=VERTEX_POINT('',#836);
#277=VERTEX_POINT('',#837);
#278=VERTEX_POINT('',#839);
#279=VERTEX_POINT('',#841);
#280=VERTEX_POINT('',#843);
#281=VERTEX_POINT('',#845);
#282=VERTEX_POINT('',#847);
#283=VERTEX_POINT('',#849);
#284=VERTEX_POINT('',#851);
#285=VERTEX_POINT('',#853);
#286=VERTEX_POINT('',#855);
#287=VERTEX_POINT('',#857);
#288=VERTEX_POINT('',#859);
#289=VERTEX_POINT('',#861);
#290=VERTEX_POINT('',#863);
#291=VERTEX_POINT('',#865);
#292=VERTEX_POINT('',#869);
#293=VERTEX_POINT('',#871);
#294=VERTEX_POINT('',#874);
#295=VERTEX_POINT('',#876);
#296=VERTEX_POINT('',#878);
#297=VERTEX_POINT('',#880);
#298=VERTEX_POINT('',#884);
#299=VERTEX_POINT('',#886);
#300=VERTEX_POINT('',#888);
#301=VERTEX_POINT('',#890);
#302=VERTEX_POINT('',#892);
#303=VERTEX_POINT('',#894);
#304=VERTEX_POINT('',#895);
#305=VERTEX_POINT('',#897);
#306=VERTEX_POINT('',#899);
#307=VERTEX_POINT('',#901);
#308=VERTEX_POINT('',#903);
#309=VERTEX_POINT('',#905);
#310=VERTEX_POINT('',#909);
#311=VERTEX_POINT('',#911);
#312=VERTEX_POINT('',#915);
#313=VERTEX_POINT('',#919);
#314=VERTEX_POINT('',#924);
#315=VERTEX_POINT('',#928);
#316=VERTEX_POINT('',#932);
#317=VERTEX_POINT('',#935);
#318=VERTEX_POINT('',#938);
#319=VERTEX_POINT('',#941);
#320=VERTEX_POINT('',#946);
#321=VERTEX_POINT('',#949);
#322=VERTEX_POINT('',#955);
#323=VERTEX_POINT('',#957);
#324=VERTEX_POINT('',#959);
#325=VERTEX_POINT('',#961);
#326=VERTEX_POINT('',#963);
#327=VERTEX_POINT('',#965);
#328=VERTEX_POINT('',#967);
#329=VERTEX_POINT('',#969);
#330=VERTEX_POINT('',#989);
#331=VERTEX_POINT('',#993);
#332=VERTEX_POINT('',#997);
#333=LINE('',#835,#397);
#334=LINE('',#838,#398);
#335=LINE('',#840,#399);
#336=LINE('',#842,#400);
#337=LINE('',#844,#401);
#338=LINE('',#846,#402);
#339=LINE('',#848,#403);
#340=LINE('',#850,#404);
#341=LINE('',#852,#405);
#342=LINE('',#854,#406);
#343=LINE('',#856,#407);
#344=LINE('',#858,#408);
#345=LINE('',#860,#409);
#346=LINE('',#862,#410);
#347=LINE('',#864,#411);
#348=LINE('',#866,#412);
#349=LINE('',#868,#413);
#350=LINE('',#870,#414);
#351=LINE('',#872,#415);
#352=LINE('',#873,#416);
#353=LINE('',#875,#417);
#354=LINE('',#877,#418);
#355=LINE('',#879,#419);
#356=LINE('',#881,#420);
#357=LINE('',#893,#421);
#358=LINE('',#896,#422);
#359=LINE('',#898,#423);
#360=LINE('',#902,#424);
#361=LINE('',#906,#425);
#362=LINE('',#908,#426);
#363=LINE('',#910,#427);
#364=LINE('',#912,#428);
#365=LINE('',#914,#429);
#366=LINE('',#916,#430);
#367=LINE('',#918,#431);
#368=LINE('',#920,#432);
#369=LINE('',#921,#433);
#370=LINE('',#925,#434);
#371=LINE('',#927,#435);
#372=LINE('',#929,#436);
#373=LINE('',#950,#437);
#374=LINE('',#952,#438);
#375=LINE('',#954,#439);
#376=LINE('',#956,#440);
#377=LINE('',#958,#441);
#378=LINE('',#960,#442);
#379=LINE('',#962,#443);
#380=LINE('',#964,#444);
#381=LINE('',#966,#445);
#382=LINE('',#968,#446);
#383=LINE('',#970,#447);
#384=LINE('',#972,#448);
#385=LINE('',#974,#449);
#386=LINE('',#976,#450);
#387=LINE('',#978,#451);
#388=LINE('',#980,#452);
#389=LINE('',#982,#453);
#390=LINE('',#984,#454);
#391=LINE('',#986,#455);
#392=LINE('',#992,#456);
#393=LINE('',#994,#457);
#394=LINE('',#996,#458);
#395=LINE('',#998,#459);
#396=LINE('',#1000,#460);
#397=VECTOR('',#677,1.);
#398=VECTOR('',#678,1.);
#399=VECTOR('',#679,1.);
#400=VECTOR('',#680,1.);
#401=VECTOR('',#681,1.);
#402=VECTOR('',#682,1.);
#403=VECTOR('',#683,1.);
#404=VECTOR('',#684,1.);
#405=VECTOR('',#685,1.);
#406=VECTOR('',#686,1.);
#407=VECTOR('',#687,1.);
#408=VECTOR('',#688,1.);
#409=VECTOR('',#689,1.);
#410=VECTOR('',#690,1.);
#411=VECTOR('',#691,1.);
#412=VECTOR('',#692,1.);
#413=VECTOR('',#695,1.);
#414=VECTOR('',#696,1.);
#415=VECTOR('',#697,1.);
#416=VECTOR('',#698,1.);
#417=VECTOR('',#699,1.);
#418=VECTOR('',#700,1.);
#419=VECTOR('',#701,1.);
#420=VECTOR('',#702,1.);
#421=VECTOR('',#715,1.);
#422=VECTOR('',#716,1.);
#423=VECTOR('',#717,1.);
#424=VECTOR('',#720,1.);
#425=VECTOR('',#723,1.);
#426=VECTOR('',#726,1.);
#427=VECTOR('',#727,1.);
#428=VECTOR('',#728,1.);
#429=VECTOR('',#731,1.);
#430=VECTOR('',#732,1.);
#431=VECTOR('',#735,1.);
#432=VECTOR('',#736,1.);
#433=VECTOR('',#737,1.);
#434=VECTOR('',#742,1.);
#435=VECTOR('',#745,1.);
#436=VECTOR('',#746,1.);
#437=VECTOR('',#775,1.);
#438=VECTOR('',#778,1.);
#439=VECTOR('',#781,1.);
#440=VECTOR('',#782,1.);
#441=VECTOR('',#783,1.);
#442=VECTOR('',#784,1.);
#443=VECTOR('',#785,1.);
#444=VECTOR('',#786,1.);
#445=VECTOR('',#787,1.);
#446=VECTOR('',#788,1.);
#447=VECTOR('',#789,1.);
#448=VECTOR('',#792,1.);
#449=VECTOR('',#795,1.);
#450=VECTOR('',#798,1.);
#451=VECTOR('',#801,1.);
#452=VECTOR('',#804,1.);
#453=VECTOR('',#807,1.);
#454=VECTOR('',#810,1.);
#455=VECTOR('',#813,1.);
#456=VECTOR('',#822,1.);
#457=VECTOR('',#823,1.);
#458=VECTOR('',#826,1.);
#459=VECTOR('',#827,1.);
#460=VECTOR('',#830,1.);
#461=EDGE_LOOP('',(#36,#37,#38,#39,#40,#41,#42,#43,#44,#45,#46,#47,#48,
#49,#50,#51));
#462=EDGE_LOOP('',(#52,#53,#54,#55,#56,#57,#58,#59,#60,#61));
#463=EDGE_LOOP('',(#62));
#464=EDGE_LOOP('',(#63));
#465=EDGE_LOOP('',(#64));
#466=EDGE_LOOP('',(#65));
#467=EDGE_LOOP('',(#66));
#468=EDGE_LOOP('',(#67,#68,#69,#70,#71,#72,#73));
#469=EDGE_LOOP('',(#74,#75,#76,#77));
#470=EDGE_LOOP('',(#78,#79,#80,#81));
#471=EDGE_LOOP('',(#82,#83,#84,#85,#86,#87));
#472=EDGE_LOOP('',(#88,#89,#90,#91));
#473=EDGE_LOOP('',(#92,#93,#94,#95));
#474=EDGE_LOOP('',(#96));
#475=EDGE_LOOP('',(#97));
#476=EDGE_LOOP('',(#98));
#477=EDGE_LOOP('',(#99));
#478=EDGE_LOOP('',(#100));
#479=EDGE_LOOP('',(#101));
#480=EDGE_LOOP('',(#102));
#481=EDGE_LOOP('',(#103));
#482=EDGE_LOOP('',(#104,#105,#106,#107));
#483=EDGE_LOOP('',(#108));
#484=EDGE_LOOP('',(#109));
#485=EDGE_LOOP('',(#110));
#486=EDGE_LOOP('',(#111,#112,#113,#114,#115,#116,#117,#118));
#487=EDGE_LOOP('',(#119));
#488=EDGE_LOOP('',(#120));
#489=EDGE_LOOP('',(#121));
#490=EDGE_LOOP('',(#122));
#491=EDGE_LOOP('',(#123));
#492=EDGE_LOOP('',(#124,#125,#126,#127));
#493=EDGE_LOOP('',(#128,#129,#130,#131,#132,#133,#134,#135,#136,#137,#138,
#139));
#494=EDGE_LOOP('',(#140,#141,#142,#143,#144));
#495=EDGE_LOOP('',(#145,#146,#147,#148));
#496=EDGE_LOOP('',(#149,#150,#151,#152));
#497=EDGE_LOOP('',(#153,#154,#155,#156));
#498=EDGE_LOOP('',(#157,#158,#159,#160));
#499=EDGE_LOOP('',(#161,#162,#163,#164));
#500=EDGE_LOOP('',(#165,#166,#167,#168));
#501=EDGE_LOOP('',(#169,#170,#171,#172));
#502=EDGE_LOOP('',(#173));
#503=EDGE_LOOP('',(#174,#175,#176,#177));
#504=EDGE_LOOP('',(#178));
#505=EDGE_LOOP('',(#179));
#506=EDGE_LOOP('',(#180,#181,#182,#183));
#507=EDGE_LOOP('',(#184,#185,#186,#187));
#508=EDGE_LOOP('',(#188,#189,#190,#191));
#509=EDGE_LOOP('',(#192,#193,#194,#195));
#510=FACE_BOUND('',#461,.T.);
#511=FACE_BOUND('',#462,.T.);
#512=FACE_BOUND('',#463,.T.);
#513=FACE_BOUND('',#464,.T.);
#514=FACE_BOUND('',#465,.T.);
#515=FACE_BOUND('',#466,.T.);
#516=FACE_BOUND('',#467,.T.);
#517=FACE_BOUND('',#468,.T.);
#518=FACE_BOUND('',#469,.T.);
#519=FACE_BOUND('',#470,.T.);
#520=FACE_BOUND('',#471,.T.);
#521=FACE_BOUND('',#472,.T.);
#522=FACE_BOUND('',#473,.T.);
#523=FACE_BOUND('',#474,.T.);
#524=FACE_BOUND('',#475,.T.);
#525=FACE_BOUND('',#476,.T.);
#526=FACE_BOUND('',#477,.T.);
#527=FACE_BOUND('',#478,.T.);
#528=FACE_BOUND('',#479,.T.);
#529=FACE_BOUND('',#480,.T.);
#530=FACE_BOUND('',#481,.T.);
#531=FACE_BOUND('',#482,.T.);
#532=FACE_BOUND('',#483,.T.);
#533=FACE_BOUND('',#484,.T.);
#534=FACE_BOUND('',#485,.T.);
#535=FACE_BOUND('',#486,.T.);
#536=FACE_BOUND('',#487,.T.);
#537=FACE_BOUND('',#488,.T.);
#538=FACE_BOUND('',#489,.T.);
#539=FACE_BOUND('',#490,.T.);
#540=FACE_BOUND('',#491,.T.);
#541=FACE_BOUND('',#492,.T.);
#542=FACE_BOUND('',#493,.T.);
#543=FACE_BOUND('',#494,.T.);
#544=FACE_BOUND('',#495,.T.);
#545=FACE_BOUND('',#496,.T.);
#546=FACE_BOUND('',#497,.T.);
#547=FACE_BOUND('',#498,.T.);
#548=FACE_BOUND('',#499,.T.);
#549=FACE_BOUND('',#500,.T.);
#550=FACE_BOUND('',#501,.T.);
#551=FACE_BOUND('',#502,.T.);
#552=FACE_BOUND('',#503,.T.);
#553=FACE_BOUND('',#504,.T.);
#554=FACE_BOUND('',#505,.T.);
#555=FACE_BOUND('',#506,.T.);
#556=FACE_BOUND('',#507,.T.);
#557=FACE_BOUND('',#508,.T.);
#558=FACE_BOUND('',#509,.T.);
#559=PLANE('',#626);
#560=PLANE('',#627);
#561=PLANE('',#628);
#562=PLANE('',#636);
#563=PLANE('',#637);
#564=PLANE('',#638);
#565=PLANE('',#641);
#566=PLANE('',#654);
#567=PLANE('',#656);
#568=PLANE('',#657);
#569=PLANE('',#658);
#570=PLANE('',#659);
#571=PLANE('',#660);
#572=PLANE('',#661);
#573=PLANE('',#662);
#574=PLANE('',#663);
#575=PLANE('',#664);
#576=PLANE('',#665);
#577=PLANE('',#666);
#578=PLANE('',#669);
#579=PLANE('',#670);
#580=PLANE('',#671);
#581=PLANE('',#672);
#582=ADVANCED_FACE('',(#510),#559,.T.);
#583=ADVANCED_FACE('',(#511),#560,.T.);
#584=ADVANCED_FACE('',(#512,#513,#514,#515,#516,#517),#561,.T.);
#585=ADVANCED_FACE('',(#518),#562,.T.);
#586=ADVANCED_FACE('',(#519),#563,.T.);
#587=ADVANCED_FACE('',(#520),#564,.T.);
#588=ADVANCED_FACE('',(#521),#12,.T.);
#589=ADVANCED_FACE('',(#522),#565,.T.);
#590=ADVANCED_FACE('',(#523,#524),#13,.F.);
#591=ADVANCED_FACE('',(#525,#526),#14,.F.);
#592=ADVANCED_FACE('',(#527,#528),#15,.F.);
#593=ADVANCED_FACE('',(#529,#530),#16,.F.);
#594=ADVANCED_FACE('',(#531),#17,.T.);
#595=ADVANCED_FACE('',(#532,#533),#18,.F.);
#596=ADVANCED_FACE('',(#534,#535,#536,#537,#538,#539,#540),#566,.F.);
#597=ADVANCED_FACE('',(#541),#567,.T.);
#598=ADVANCED_FACE('',(#542),#568,.F.);
#599=ADVANCED_FACE('',(#543),#569,.F.);
#600=ADVANCED_FACE('',(#544),#570,.F.);
#601=ADVANCED_FACE('',(#545),#571,.T.);
#602=ADVANCED_FACE('',(#546),#572,.T.);
#603=ADVANCED_FACE('',(#547),#573,.F.);
#604=ADVANCED_FACE('',(#548),#574,.T.);
#605=ADVANCED_FACE('',(#549),#575,.T.);
#606=ADVANCED_FACE('',(#550),#576,.T.);
#607=ADVANCED_FACE('',(#551,#552),#577,.F.);
#608=ADVANCED_FACE('',(#553,#554),#19,.F.);
#609=ADVANCED_FACE('',(#555),#578,.T.);
#610=ADVANCED_FACE('',(#556),#579,.F.);
#611=ADVANCED_FACE('',(#557),#580,.T.);
#612=ADVANCED_FACE('',(#558),#581,.T.);
#613=CLOSED_SHELL('',(#582,#583,#584,#585,#586,#587,#588,#589,#590,#591,
#592,#593,#594,#595,#596,#597,#598,#599,#600,#601,#602,#603,#604,#605,#606,
#607,#608,#609,#610,#611,#612));
#614=STYLED_ITEM('',(#615),#622);
#615=PRESENTATION_STYLE_ASSIGNMENT((#616));
#616=SURFACE_STYLE_USAGE(.BOTH.,#617);
#617=SURFACE_SIDE_STYLE('',(#618));
#618=SURFACE_STYLE_FILL_AREA(#619);
#619=FILL_AREA_STYLE('',(#620));
#620=FILL_AREA_STYLE_COLOUR('',#621);
#621=COLOUR_RGB('',0.615686274509804,0.811764705882353,0.929411764705882);
#622=MANIFOLD_SOLID_BREP('Part 1',#613);
#623=SHAPE_DEFINITION_REPRESENTATION(#1008,#624);
#624=SHAPE_REPRESENTATION('Part 1',(#625),#1003);
#625=AXIS2_PLACEMENT_3D('',#833,#673,#674);
#626=AXIS2_PLACEMENT_3D('',#834,#675,#676);
#627=AXIS2_PLACEMENT_3D('',#867,#693,#694);
#628=AXIS2_PLACEMENT_3D('',#882,#703,#704);
#629=AXIS2_PLACEMENT_3D('',#883,#705,#706);
#630=AXIS2_PLACEMENT_3D('',#885,#707,#708);
#631=AXIS2_PLACEMENT_3D('',#887,#709,#710);
#632=AXIS2_PLACEMENT_3D('',#889,#711,#712);
#633=AXIS2_PLACEMENT_3D('',#891,#713,#714);
#634=AXIS2_PLACEMENT_3D('',#900,#718,#719);
#635=AXIS2_PLACEMENT_3D('',#904,#721,#722);
#636=AXIS2_PLACEMENT_3D('',#907,#724,#725);
#637=AXIS2_PLACEMENT_3D('',#913,#729,#730);
#638=AXIS2_PLACEMENT_3D('',#917,#733,#734);
#639=AXIS2_PLACEMENT_3D('',#922,#738,#739);
#640=AXIS2_PLACEMENT_3D('',#923,#740,#741);
#641=AXIS2_PLACEMENT_3D('',#926,#743,#744);
#642=AXIS2_PLACEMENT_3D('',#930,#747,#748);
#643=AXIS2_PLACEMENT_3D('',#931,#749,#750);
#644=AXIS2_PLACEMENT_3D('',#933,#751,#752);
#645=AXIS2_PLACEMENT_3D('',#934,#753,#754);
#646=AXIS2_PLACEMENT_3D('',#936,#755,#756);
#647=AXIS2_PLACEMENT_3D('',#937,#757,#758);
#648=AXIS2_PLACEMENT_3D('',#939,#759,#760);
#649=AXIS2_PLACEMENT_3D('',#940,#761,#762);
#650=AXIS2_PLACEMENT_3D('',#942,#763,#764);
#651=AXIS2_PLACEMENT_3D('',#943,#765,#766);
#652=AXIS2_PLACEMENT_3D('',#944,#767,#768);
#653=AXIS2_PLACEMENT_3D('',#945,#769,#770);
#654=AXIS2_PLACEMENT_3D('',#947,#771,#772);
#655=AXIS2_PLACEMENT_3D('',#948,#773,#774);
#656=AXIS2_PLACEMENT_3D('',#951,#776,#777);
#657=AXIS2_PLACEMENT_3D('',#953,#779,#780);
#658=AXIS2_PLACEMENT_3D('',#971,#790,#791);
#659=AXIS2_PLACEMENT_3D('',#973,#793,#794);
#660=AXIS2_PLACEMENT_3D('',#975,#796,#797);
#661=AXIS2_PLACEMENT_3D('',#977,#799,#800);
#662=AXIS2_PLACEMENT_3D('',#979,#802,#803);
#663=AXIS2_PLACEMENT_3D('',#981,#805,#806);
#664=AXIS2_PLACEMENT_3D('',#983,#808,#809);
#665=AXIS2_PLACEMENT_3D('',#985,#811,#812);
#666=AXIS2_PLACEMENT_3D('',#987,#814,#815);
#667=AXIS2_PLACEMENT_3D('',#988,#816,#817);
#668=AXIS2_PLACEMENT_3D('',#990,#818,#819);
#669=AXIS2_PLACEMENT_3D('',#991,#820,#821);
#670=AXIS2_PLACEMENT_3D('',#995,#824,#825);
#671=AXIS2_PLACEMENT_3D('',#999,#828,#829);
#672=AXIS2_PLACEMENT_3D('',#1001,#831,#832);
#673=DIRECTION('',(0.,0.,1.));
#674=DIRECTION('',(1.,0.,0.));
#675=DIRECTION('',(-1.,0.,0.));
#676=DIRECTION('',(0.,-1.,0.));
#677=DIRECTION('',(0.,0.,1.));
#678=DIRECTION('',(0.,-1.,0.));
#679=DIRECTION('',(0.,0.,1.));
#680=DIRECTION('',(0.,1.,0.));
#681=DIRECTION('',(0.,0.,1.));
#682=DIRECTION('',(0.,-1.,3.09835592444653E-16));
#683=DIRECTION('',(0.,0.,-1.));
#684=DIRECTION('',(0.,-1.,0.));
#685=DIRECTION('',(0.,0.,-1.));
#686=DIRECTION('',(0.,-1.,2.69664527391683E-16));
#687=DIRECTION('',(0.,0.,1.));
#688=DIRECTION('',(0.,1.,0.));
#689=DIRECTION('',(0.,0.,1.));
#690=DIRECTION('',(0.,1.,0.));
#691=DIRECTION('',(0.,0.,1.));
#692=DIRECTION('',(0.,-1.,0.));
#693=DIRECTION('',(0.,-1.,0.));
#694=DIRECTION('',(1.,0.,0.));
#695=DIRECTION('',(1.,0.,0.));
#696=DIRECTION('',(0.,0.,-1.));
#697=DIRECTION('',(1.,0.,0.));
#698=DIRECTION('',(-1.,0.,0.));
#699=DIRECTION('',(0.,0.,-1.));
#700=DIRECTION('',(1.,0.,0.));
#701=DIRECTION('',(0.,0.,1.));
#702=DIRECTION('',(1.,0.,0.));
#703=DIRECTION('',(0.,-1.,0.));
#704=DIRECTION('',(1.,0.,0.));
#705=DIRECTION('',(0.,-1.,0.));
#706=DIRECTION('',(0.,0.,-1.));
#707=DIRECTION('',(0.,-1.,0.));
#708=DIRECTION('',(0.,0.,-1.));
#709=DIRECTION('',(0.,-1.,0.));
#710=DIRECTION('',(0.,0.,-1.));
#711=DIRECTION('',(0.,-1.,0.));
#712=DIRECTION('',(0.,0.,-1.));
#713=DIRECTION('',(0.,-1.,0.));
#714=DIRECTION('',(0.,0.,-1.));
#715=DIRECTION('',(0.,0.,1.));
#716=DIRECTION('',(1.,0.,0.));
#717=DIRECTION('',(0.,0.,-1.));
#718=DIRECTION('',(0.,-1.,0.));
#719=DIRECTION('',(0.,0.,-1.));
#720=DIRECTION('',(1.,0.,0.));
#721=DIRECTION('',(0.,-1.,0.));
#722=DIRECTION('',(0.,0.,-1.));
#723=DIRECTION('',(0.,0.,1.));
#724=DIRECTION('',(-1.,0.,0.));
#725=DIRECTION('',(0.,0.,1.));
#726=DIRECTION('',(0.,1.,0.));
#727=DIRECTION('',(0.,1.,0.));
#728=DIRECTION('',(0.,0.,1.));
#729=DIRECTION('',(0.,0.,-1.));
#730=DIRECTION('',(-1.,0.,0.));
#731=DIRECTION('',(-1.,0.,0.));
#732=DIRECTION('',(0.,1.,0.));
#733=DIRECTION('',(1.,0.,0.));
#734=DIRECTION('',(0.,0.,-1.));
#735=DIRECTION('',(0.,0.,-1.));
#736=DIRECTION('',(0.,1.,0.));
#737=DIRECTION('',(0.,1.,0.));
#738=DIRECTION('',(0.,1.,0.));
#739=DIRECTION('',(0.,0.,1.));
#740=DIRECTION('',(0.,-1.,0.));
#741=DIRECTION('',(0.,0.,-1.));
#742=DIRECTION('',(0.,1.,0.));
#743=DIRECTION('',(0.,0.,1.));
#744=DIRECTION('',(1.,0.,0.));
#745=DIRECTION('',(1.,0.,0.));
#746=DIRECTION('',(0.,1.,0.));
#747=DIRECTION('',(0.,1.,0.));
#748=DIRECTION('',(0.,0.,1.));
#749=DIRECTION('',(0.,-1.,0.));
#750=DIRECTION('',(0.,0.,-1.));
#751=DIRECTION('',(0.,1.,0.));
#752=DIRECTION('',(0.,0.,1.));
#753=DIRECTION('',(0.,-1.,0.));
#754=DIRECTION('',(0.,0.,-1.));
#755=DIRECTION('',(0.,1.,0.));
#756=DIRECTION('',(0.,0.,1.));
#757=DIRECTION('',(0.,-1.,0.));
#758=DIRECTION('',(0.,0.,-1.));
#759=DIRECTION('',(0.,1.,0.));
#760=DIRECTION('',(0.,0.,1.));
#761=DIRECTION('',(0.,-1.,0.));
#762=DIRECTION('',(0.,0.,-1.));
#763=DIRECTION('',(0.,1.,0.));
#764=DIRECTION('',(0.,0.,1.));
#765=DIRECTION('',(0.,-1.,0.));
#766=DIRECTION('',(0.,0.,-1.));
#767=DIRECTION('',(0.,1.,0.));
#768=DIRECTION('',(0.,0.,1.));
#769=DIRECTION('',(0.,-1.,0.));
#770=DIRECTION('',(0.,0.,-1.));
#771=DIRECTION('',(0.,-1.,0.));
#772=DIRECTION('',(1.,0.,0.));
#773=DIRECTION('',(0.,1.,0.));
#774=DIRECTION('',(0.,0.,1.));
#775=DIRECTION('',(1.,0.,0.));
#776=DIRECTION('',(0.,0.,1.));
#777=DIRECTION('',(1.,0.,0.));
#778=DIRECTION('',(0.,1.,0.));
#779=DIRECTION('',(-1.,0.,0.));
#780=DIRECTION('',(0.,-1.,0.));
#781=DIRECTION('',(0.,1.,0.));
#782=DIRECTION('',(0.,1.,0.));
#783=DIRECTION('',(0.,0.,1.));
#784=DIRECTION('',(0.,-1.,2.69664527391683E-16));
#785=DIRECTION('',(0.,0.,-1.));
#786=DIRECTION('',(0.,-1.,0.));
#787=DIRECTION('',(0.,0.,-1.));
#788=DIRECTION('',(0.,-1.,3.09835592444653E-16));
#789=DIRECTION('',(0.,0.,1.));
#790=DIRECTION('',(0.,0.,-1.));
#791=DIRECTION('',(-1.,0.,0.));
#792=DIRECTION('',(1.,0.,0.));
#793=DIRECTION('',(0.,0.,-1.));
#794=DIRECTION('',(-1.,0.,0.));
#795=DIRECTION('',(1.,0.,0.));
#796=DIRECTION('',(0.,1.,0.));
#797=DIRECTION('',(0.,0.,1.));
#798=DIRECTION('',(1.,0.,0.));
#799=DIRECTION('',(0.,3.09835592444653E-16,1.));
#800=DIRECTION('',(0.,-1.,3.09835592444653E-16));
#801=DIRECTION('',(1.,0.,0.));
#802=DIRECTION('',(0.,-1.,0.));
#803=DIRECTION('',(0.,0.,-1.));
#804=DIRECTION('',(1.,0.,0.));
#805=DIRECTION('',(0.,0.,1.));
#806=DIRECTION('',(1.,0.,0.));
#807=DIRECTION('',(1.,0.,0.));
#808=DIRECTION('',(0.,-1.,0.));
#809=DIRECTION('',(0.,0.,-1.));
#810=DIRECTION('',(1.,0.,0.));
#811=DIRECTION('',(0.,2.69664527391683E-16,1.));
#812=DIRECTION('',(0.,-1.,2.69664527391683E-16));
#813=DIRECTION('',(1.,0.,0.));
#814=DIRECTION('',(0.,1.,0.));
#815=DIRECTION('',(0.,0.,1.));
#816=DIRECTION('',(0.,1.,0.));
#817=DIRECTION('',(0.,0.,1.));
#818=DIRECTION('',(0.,1.,0.));
#819=DIRECTION('',(0.,0.,1.));
#820=DIRECTION('',(0.,0.,-1.));
#821=DIRECTION('',(-1.,0.,0.));
#822=DIRECTION('',(1.,0.,0.));
#823=DIRECTION('',(0.,-1.,0.));
#824=DIRECTION('',(0.,0.,-1.));
#825=DIRECTION('',(-1.,0.,0.));
#826=DIRECTION('',(0.,-1.,0.));
#827=DIRECTION('',(1.,0.,0.));
#828=DIRECTION('',(-1.,0.,0.));
#829=DIRECTION('',(0.,0.,1.));
#830=DIRECTION('',(0.,0.,-1.));
#831=DIRECTION('',(0.,-1.,0.));
#832=DIRECTION('',(1.,0.,0.));
#833=CARTESIAN_POINT('',(0.,0.,0.));
#834=CARTESIAN_POINT('',(-0.05,-0.026,0.0225));
#835=CARTESIAN_POINT('',(-0.05,-0.049,0.01875));
#836=CARTESIAN_POINT('',(-0.05,-0.049,0.015));
#837=CARTESIAN_POINT('',(-0.05,-0.049,0.0355));
#838=CARTESIAN_POINT('',(-0.05,-0.049,0.0355));
#839=CARTESIAN_POINT('',(-0.05,-0.056,0.0355));
#840=CARTESIAN_POINT('',(-0.05,-0.056,0.01875));
#841=CARTESIAN_POINT('',(-0.05,-0.056,0.0375));
#842=CARTESIAN_POINT('',(-0.05,-0.0495,0.0375));
#843=CARTESIAN_POINT('',(-0.05,-0.047,0.0375));
#844=CARTESIAN_POINT('',(-0.05,-0.047,0.0275));
#845=CARTESIAN_POINT('',(-0.05,-0.047,0.0175));
#846=CARTESIAN_POINT('',(-0.05,-0.0414011484855902,0.0175));
#847=CARTESIAN_POINT('',(-0.05,-0.0358022969711804,0.0175));
#848=CARTESIAN_POINT('',(-0.05,-0.0358022969711804,0.0155884583026434));
#849=CARTESIAN_POINT('',(-0.05,-0.0358022969711804,0.0136769166052869));
#850=CARTESIAN_POINT('',(-0.05,-0.0278340430629965,0.0136769166052869));
#851=CARTESIAN_POINT('',(-0.05,-0.0198657891548128,0.0136769166052869));
#852=CARTESIAN_POINT('',(-0.05,-0.0198657891548128,0.0155884583026434));
#853=CARTESIAN_POINT('',(-0.05,-0.0198657891548128,0.0175));
#854=CARTESIAN_POINT('',(-0.05,-0.0134328945774064,0.0175));
#855=CARTESIAN_POINT('',(-0.05,-0.007,0.0175));
#856=CARTESIAN_POINT('',(-0.05,-0.007,0.0275));
#857=CARTESIAN_POINT('',(-0.05,-0.007,0.0375));
#858=CARTESIAN_POINT('',(-0.05,-0.0035,0.0375));
#859=CARTESIAN_POINT('',(-0.05,0.,0.0375));
#860=CARTESIAN_POINT('',(-0.05,0.,0.025));
#861=CARTESIAN_POINT('',(-0.05,0.,0.));
#862=CARTESIAN_POINT('',(-0.05,-0.002,0.));
#863=CARTESIAN_POINT('',(-0.05,-0.056,0.));
#864=CARTESIAN_POINT('',(-0.05,-0.056,0.01875));
#865=CARTESIAN_POINT('',(-0.05,-0.056,0.015));
#866=CARTESIAN_POINT('',(-0.05,-0.049,0.015));
#867=CARTESIAN_POINT('',(-6.93889390390723E-18,-0.056,0.025));
#868=CARTESIAN_POINT('',(-0.0398617692038907,-0.056,0.0355));
#869=CARTESIAN_POINT('',(-0.0297235384077814,-0.056,0.0355));
#870=CARTESIAN_POINT('',(-0.0297235384077814,-0.056,0.02525));
#871=CARTESIAN_POINT('',(-0.0297235384077814,-0.056,0.015));
#872=CARTESIAN_POINT('',(-0.0398617692038907,-0.056,0.015));
#873=CARTESIAN_POINT('',(-0.0225,-0.056,0.));
#874=CARTESIAN_POINT('',(0.025,-0.056,0.));
#875=CARTESIAN_POINT('',(0.025,-0.056,0.0025));
#876=CARTESIAN_POINT('',(0.025,-0.056,0.0025));
#877=CARTESIAN_POINT('',(0.,-0.056,0.0025));
#878=CARTESIAN_POINT('',(-0.025,-0.056,0.0025));
#879=CARTESIAN_POINT('',(-0.025,-0.056,0.01875));
#880=CARTESIAN_POINT('',(-0.025,-0.056,0.0375));
#881=CARTESIAN_POINT('',(-0.05,-0.056,0.0375));
#882=CARTESIAN_POINT('',(-6.93889390390723E-18,-0.002,0.025));
#883=CARTESIAN_POINT('',(0.,-0.002,0.025));
#884=CARTESIAN_POINT('',(0.,-0.002,0.013));
#885=CARTESIAN_POINT('',(-0.0155,-0.002,0.0405));
#886=CARTESIAN_POINT('',(-0.0155,-0.002,0.0385));
#887=CARTESIAN_POINT('',(0.0155,-0.002,0.0405));
#888=CARTESIAN_POINT('',(0.0155,-0.002,0.0385));
#889=CARTESIAN_POINT('',(0.0155,-0.002,0.0095));
#890=CARTESIAN_POINT('',(0.0155,-0.002,0.0075));
#891=CARTESIAN_POINT('',(-0.0155,-0.002,0.0095));
#892=CARTESIAN_POINT('',(-0.0155,-0.002,0.0075));
#893=CARTESIAN_POINT('',(-0.025,-0.002,0.025));
#894=CARTESIAN_POINT('',(-0.025,-0.002,0.0025));
#895=CARTESIAN_POINT('',(-0.025,-0.002,0.0375));
#896=CARTESIAN_POINT('',(0.,-0.002,0.0025));
#897=CARTESIAN_POINT('',(0.025,-0.002,0.0025));
#898=CARTESIAN_POINT('',(0.025,-0.002,0.0025));
#899=CARTESIAN_POINT('',(0.025,-0.002,0.045));
#900=CARTESIAN_POINT('',(0.02,-0.002,0.045));
#901=CARTESIAN_POINT('',(0.02,-0.002,0.05));
#902=CARTESIAN_POINT('',(-6.93889390390723E-18,-0.002,0.05));
#903=CARTESIAN_POINT('',(-0.02,-0.002,0.05));
#904=CARTESIAN_POINT('',(-0.02,-0.002,0.045));
#905=CARTESIAN_POINT('',(-0.025,-0.002,0.045));
#906=CARTESIAN_POINT('',(-0.025,-0.002,0.025));
#907=CARTESIAN_POINT('',(-0.025,-0.002,0.025));
#908=CARTESIAN_POINT('',(-0.025,-0.0035,0.0375));
#909=CARTESIAN_POINT('',(-0.025,0.,0.0375));
#910=CARTESIAN_POINT('',(-0.025,-0.002,0.045));
#911=CARTESIAN_POINT('',(-0.025,0.,0.045));
#912=CARTESIAN_POINT('',(-0.025,0.,0.025));
#913=CARTESIAN_POINT('',(-0.0225,-0.002,0.));
#914=CARTESIAN_POINT('',(-0.0225,0.,0.));
#915=CARTESIAN_POINT('',(0.025,0.,0.));
#916=CARTESIAN_POINT('',(0.025,-0.002,0.));
#917=CARTESIAN_POINT('',(0.025,-0.002,0.0025));
#918=CARTESIAN_POINT('',(0.025,0.,0.0025));
#919=CARTESIAN_POINT('',(0.025,0.,0.045));
#920=CARTESIAN_POINT('',(0.025,-0.002,0.045));
#921=CARTESIAN_POINT('',(0.025,-0.052,0.0025));
#922=CARTESIAN_POINT('',(0.02,-0.002,0.045));
#923=CARTESIAN_POINT('',(0.02,0.,0.045));
#924=CARTESIAN_POINT('',(0.02,0.,0.05));
#925=CARTESIAN_POINT('',(0.02,-0.002,0.05));
#926=CARTESIAN_POINT('',(-6.93889390390723E-18,-0.002,0.05));
#927=CARTESIAN_POINT('',(-6.93889390390723E-18,0.,0.05));
#928=CARTESIAN_POINT('',(-0.02,0.,0.05));
#929=CARTESIAN_POINT('',(-0.02,-0.002,0.05));
#930=CARTESIAN_POINT('',(0.0155,-0.002,0.0095));
#931=CARTESIAN_POINT('',(0.0155,0.,0.0095));
#932=CARTESIAN_POINT('',(0.0155,0.,0.0075));
#933=CARTESIAN_POINT('',(0.0155,-0.002,0.0405));
#934=CARTESIAN_POINT('',(0.0155,0.,0.0405));
#935=CARTESIAN_POINT('',(0.0155,0.,0.0385));
#936=CARTESIAN_POINT('',(-0.0155,-0.002,0.0405));
#937=CARTESIAN_POINT('',(-0.0155,0.,0.0405));
#938=CARTESIAN_POINT('',(-0.0155,0.,0.0385));
#939=CARTESIAN_POINT('',(0.,-0.002,0.025));
#940=CARTESIAN_POINT('',(0.,0.,0.025));
#941=CARTESIAN_POINT('',(0.,0.,0.013));
#942=CARTESIAN_POINT('',(-0.02,-0.002,0.045));
#943=CARTESIAN_POINT('',(-0.02,0.,0.045));
#944=CARTESIAN_POINT('',(-0.0155,-0.002,0.0095));
#945=CARTESIAN_POINT('',(-0.0155,0.,0.0095));
#946=CARTESIAN_POINT('',(-0.0155,0.,0.0075));
#947=CARTESIAN_POINT('',(-6.93889390390723E-18,0.,0.025));
#948=CARTESIAN_POINT('',(-0.0375,0.,0.0275));
#949=CARTESIAN_POINT('',(-0.0375,0.,0.0305));
#950=CARTESIAN_POINT('',(-0.05,0.,0.0375));
#951=CARTESIAN_POINT('',(0.,-0.052,0.0025));
#952=CARTESIAN_POINT('',(-0.025,-0.052,0.0025));
#953=CARTESIAN_POINT('',(-0.025,-0.026,0.0225));
#954=CARTESIAN_POINT('',(-0.025,-0.0495,0.0375));
#955=CARTESIAN_POINT('',(-0.025,-0.047,0.0375));
#956=CARTESIAN_POINT('',(-0.025,-0.0035,0.0375));
#957=CARTESIAN_POINT('',(-0.025,-0.007,0.0375));
#958=CARTESIAN_POINT('',(-0.025,-0.007,0.0275));
#959=CARTESIAN_POINT('',(-0.025,-0.007,0.0175));
#960=CARTESIAN_POINT('',(-0.025,-0.0134328945774064,0.0175));
#961=CARTESIAN_POINT('',(-0.025,-0.0198657891548128,0.0175));
#962=CARTESIAN_POINT('',(-0.025,-0.0198657891548128,0.0155884583026434));
#963=CARTESIAN_POINT('',(-0.025,-0.0198657891548128,0.0136769166052869));
#964=CARTESIAN_POINT('',(-0.025,-0.0278340430629965,0.0136769166052869));
#965=CARTESIAN_POINT('',(-0.025,-0.0358022969711804,0.0136769166052869));
#966=CARTESIAN_POINT('',(-0.025,-0.0358022969711804,0.0155884583026434));
#967=CARTESIAN_POINT('',(-0.025,-0.0358022969711804,0.0175));
#968=CARTESIAN_POINT('',(-0.025,-0.0414011484855902,0.0175));
#969=CARTESIAN_POINT('',(-0.025,-0.047,0.0175));
#970=CARTESIAN_POINT('',(-0.025,-0.047,0.0275));
#971=CARTESIAN_POINT('',(-0.05,-0.0035,0.0375));
#972=CARTESIAN_POINT('',(-0.05,-0.007,0.0375));
#973=CARTESIAN_POINT('',(-0.05,-0.0495,0.0375));
#974=CARTESIAN_POINT('',(-0.05,-0.047,0.0375));
#975=CARTESIAN_POINT('',(-0.05,-0.047,0.0275));
#976=CARTESIAN_POINT('',(-0.05,-0.047,0.0175));
#977=CARTESIAN_POINT('',(-0.05,-0.0414011484855902,0.0175));
#978=CARTESIAN_POINT('',(-0.05,-0.0358022969711804,0.0175));
#979=CARTESIAN_POINT('',(-0.05,-0.0358022969711804,0.0155884583026434));
#980=CARTESIAN_POINT('',(-0.05,-0.0358022969711804,0.0136769166052869));
#981=CARTESIAN_POINT('',(-0.05,-0.0278340430629965,0.0136769166052869));
#982=CARTESIAN_POINT('',(-0.05,-0.0198657891548128,0.0136769166052869));
#983=CARTESIAN_POINT('',(-0.05,-0.0198657891548128,0.0155884583026434));
#984=CARTESIAN_POINT('',(-0.05,-0.0198657891548128,0.0175));
#985=CARTESIAN_POINT('',(-0.05,-0.0134328945774064,0.0175));
#986=CARTESIAN_POINT('',(-0.05,-0.007,0.0175));
#987=CARTESIAN_POINT('',(-0.05,-0.007,0.0275));
#988=CARTESIAN_POINT('',(-0.0375,-0.007,0.0275));
#989=CARTESIAN_POINT('',(-0.0375,-0.007,0.0305));
#990=CARTESIAN_POINT('',(-0.0375,-0.025,0.0275));
#991=CARTESIAN_POINT('',(-0.0398617692038907,-0.049,0.0355));
#992=CARTESIAN_POINT('',(-0.0398617692038907,-0.049,0.0355));
#993=CARTESIAN_POINT('',(-0.0297235384077814,-0.049,0.0355));
#994=CARTESIAN_POINT('',(-0.0297235384077814,-0.049,0.0355));
#995=CARTESIAN_POINT('',(-0.0398617692038907,-0.049,0.015));
#996=CARTESIAN_POINT('',(-0.0297235384077814,-0.049,0.015));
#997=CARTESIAN_POINT('',(-0.0297235384077814,-0.049,0.015));
#998=CARTESIAN_POINT('',(-0.0398617692038907,-0.049,0.015));
#999=CARTESIAN_POINT('',(-0.0297235384077814,-0.049,0.02525));
#1000=CARTESIAN_POINT('',(-0.0297235384077814,-0.049,0.02525));
#1001=CARTESIAN_POINT('',(-0.0125,-0.049,0.01875));
#1002=MECHANICAL_DESIGN_GEOMETRIC_PRESENTATION_REPRESENTATION('',(#614),
#1003);
#1003=(
GEOMETRIC_REPRESENTATION_CONTEXT(3)
GLOBAL_UNCERTAINTY_ASSIGNED_CONTEXT((#1004))
GLOBAL_UNIT_ASSIGNED_CONTEXT((#1007,#1006,#1005))
REPRESENTATION_CONTEXT('Part 1','TOP_LEVEL_ASSEMBLY_PART')
);
#1004=UNCERTAINTY_MEASURE_WITH_UNIT(LENGTH_MEASURE(1.E-8),#1007,
'DISTANCE_ACCURACY_VALUE','Maximum Tolerance applied to model');
#1005=(
NAMED_UNIT(*)
SI_UNIT($,.STERADIAN.)
SOLID_ANGLE_UNIT()
);
#1006=(
NAMED_UNIT(*)
PLANE_ANGLE_UNIT()
SI_UNIT($,.RADIAN.)
);
#1007=(
LENGTH_UNIT()
NAMED_UNIT(*)
SI_UNIT($,.METRE.)
);
#1008=PRODUCT_DEFINITION_SHAPE('','',#1009);
#1009=PRODUCT_DEFINITION('','',#1011,#1010);
#1010=PRODUCT_DEFINITION_CONTEXT('',#1017,'design');
#1011=PRODUCT_DEFINITION_FORMATION_WITH_SPECIFIED_SOURCE('','',#1013,
 .NOT_KNOWN.);
#1012=PRODUCT_RELATED_PRODUCT_CATEGORY('','',(#1013));
#1013=PRODUCT('Part 1','Part 1','Part 1',(#1015));
#1014=PRODUCT_CATEGORY('','');
#1015=PRODUCT_CONTEXT('',#1017,'mechanical');
#1016=APPLICATION_PROTOCOL_DEFINITION('international standard',
'ap242_managed_model_based_3d_engineering',2020,#1017);
#1017=APPLICATION_CONTEXT('managed model based 3d engineering');
ENDSEC;
END-ISO-10303-21;
